<svg width="18" height="17" viewBox="0 0 18 17" fill="none" xmlns="http://www.w3.org/2000/svg">
<path d="M12.5337 7.5H16.4662C16.6781 7.5 16.7939 7.74721 16.6582 7.91005L14.692 10.2695C14.592 10.3895 14.4078 10.3895 14.3079 10.2695L12.3416 7.91005C12.2059 7.74721 12.3217 7.5 12.5337 7.5Z" fill="#2A5778"/>
<path d="M1.53368 9.5H5.46616C5.67812 9.5 5.79391 9.25279 5.65822 9.08995L3.69198 6.73047C3.59203 6.61053 3.40781 6.61053 3.30787 6.73047L1.34163 9.08995C1.20593 9.25279 1.32172 9.5 1.53368 9.5Z" fill="#2A5778"/>
<path fill-rule="evenodd" clip-rule="evenodd" d="M8.99992 3.5C7.44743 3.5 6.06049 4.20697 5.14261 5.31839C4.96677 5.53131 4.65161 5.56137 4.43869 5.38552C4.22578 5.20968 4.19572 4.89453 4.37156 4.68161C5.47126 3.35003 7.13654 2.5 8.99992 2.5C11.9416 2.5 14.3879 4.6165 14.901 7.40967C14.9065 7.4397 14.9118 7.46981 14.9169 7.5H13.9C13.437 5.21778 11.4185 3.5 8.99992 3.5ZM4.09984 9.5C4.56285 11.7822 6.58129 13.5 8.99992 13.5C10.5524 13.5 11.9394 12.793 12.8572 11.6816C13.0331 11.4687 13.3482 11.4386 13.5611 11.6145C13.7741 11.7903 13.8041 12.1055 13.6283 12.3184C12.5286 13.65 10.8633 14.5 8.99992 14.5C6.05822 14.5 3.6119 12.3835 3.09884 9.59033C3.09332 9.5603 3.08803 9.53019 3.08296 9.5H4.09984Z" fill="#2A5778"/>
<path d="M12.5337 7.5H16.4662C16.6781 7.5 16.7939 7.74721 16.6582 7.91005L14.692 10.2695C14.592 10.3895 14.4078 10.3895 14.3079 10.2695L12.3416 7.91005C12.2059 7.74721 12.3217 7.5 12.5337 7.5Z" stroke="#2A5778" stroke-width="0.8" stroke-linecap="round"/>
<path d="M1.53368 9.5H5.46616C5.67812 9.5 5.79391 9.25279 5.65822 9.08995L3.69198 6.73047C3.59203 6.61053 3.40781 6.61053 3.30787 6.73047L1.34163 9.08995C1.20593 9.25279 1.32172 9.5 1.53368 9.5Z" stroke="#2A5778" stroke-width="0.8" stroke-linecap="round"/>
<path fill-rule="evenodd" clip-rule="evenodd" d="M8.99992 3.5C7.44743 3.5 6.06049 4.20697 5.14261 5.31839C4.96677 5.53131 4.65161 5.56137 4.43869 5.38552C4.22578 5.20968 4.19572 4.89453 4.37156 4.68161C5.47126 3.35003 7.13654 2.5 8.99992 2.5C11.9416 2.5 14.3879 4.6165 14.901 7.40967C14.9065 7.4397 14.9118 7.46981 14.9169 7.5H13.9C13.437 5.21778 11.4185 3.5 8.99992 3.5ZM4.09984 9.5C4.56285 11.7822 6.58129 13.5 8.99992 13.5C10.5524 13.5 11.9394 12.793 12.8572 11.6816C13.0331 11.4687 13.3482 11.4386 13.5611 11.6145C13.7741 11.7903 13.8041 12.1055 13.6283 12.3184C12.5286 13.65 10.8633 14.5 8.99992 14.5C6.05822 14.5 3.6119 12.3835 3.09884 9.59033C3.09332 9.5603 3.08803 9.53019 3.08296 9.5H4.09984Z" stroke="#2A5778" stroke-width="0.8" stroke-linecap="round"/>
</svg>
