<svg width="18" height="16" viewBox="0 0 18 16" fill="none" xmlns="http://www.w3.org/2000/svg">
<path d="M12.5337 7H16.4662C16.6781 7 16.7939 7.24721 16.6582 7.41005L14.692 9.76953C14.592 9.88947 14.4078 9.88947 14.3079 9.76953L12.3416 7.41005C12.2059 7.24721 12.3217 7 12.5337 7Z" fill="#2A5778"/>
<path d="M1.53368 9H5.46616C5.67812 9 5.79391 8.75279 5.65822 8.58995L3.69198 6.23047C3.59203 6.11053 3.40781 6.11053 3.30787 6.23047L1.34163 8.58995C1.20593 8.75279 1.32172 9 1.53368 9Z" fill="#2A5778"/>
<path fill-rule="evenodd" clip-rule="evenodd" d="M8.99992 3C7.44743 3 6.06049 3.70697 5.14261 4.81839C4.96677 5.03131 4.65161 5.06137 4.43869 4.88552C4.22578 4.70968 4.19572 4.39453 4.37156 4.18161C5.47126 2.85003 7.13654 2 8.99992 2C11.9416 2 14.3879 4.1165 14.901 6.90967C14.9065 6.9397 14.9118 6.96981 14.9169 7H13.9C13.437 4.71778 11.4185 3 8.99992 3ZM4.09984 9C4.56285 11.2822 6.58129 13 8.99992 13C10.5524 13 11.9394 12.293 12.8572 11.1816C13.0331 10.9687 13.3482 10.9386 13.5611 11.1145C13.7741 11.2903 13.8041 11.6055 13.6283 11.8184C12.5286 13.15 10.8633 14 8.99992 14C6.05822 14 3.6119 11.8835 3.09884 9.09033C3.09332 9.0603 3.08803 9.03019 3.08296 9H4.09984Z" fill="#2A5778"/>
<path d="M12.5337 7H16.4662C16.6781 7 16.7939 7.24721 16.6582 7.41005L14.692 9.76953C14.592 9.88947 14.4078 9.88947 14.3079 9.76953L12.3416 7.41005C12.2059 7.24721 12.3217 7 12.5337 7Z" stroke="#2A5778" stroke-width="0.8" stroke-linecap="round"/>
<path d="M1.53368 9H5.46616C5.67812 9 5.79391 8.75279 5.65822 8.58995L3.69198 6.23047C3.59203 6.11053 3.40781 6.11053 3.30787 6.23047L1.34163 8.58995C1.20593 8.75279 1.32172 9 1.53368 9Z" stroke="#2A5778" stroke-width="0.8" stroke-linecap="round"/>
<path fill-rule="evenodd" clip-rule="evenodd" d="M8.99992 3C7.44743 3 6.06049 3.70697 5.14261 4.81839C4.96677 5.03131 4.65161 5.06137 4.43869 4.88552C4.22578 4.70968 4.19572 4.39453 4.37156 4.18161C5.47126 2.85003 7.13654 2 8.99992 2C11.9416 2 14.3879 4.1165 14.901 6.90967C14.9065 6.9397 14.9118 6.96981 14.9169 7H13.9C13.437 4.71778 11.4185 3 8.99992 3ZM4.09984 9C4.56285 11.2822 6.58129 13 8.99992 13C10.5524 13 11.9394 12.293 12.8572 11.1816C13.0331 10.9687 13.3482 10.9386 13.5611 11.1145C13.7741 11.2903 13.8041 11.6055 13.6283 11.8184C12.5286 13.15 10.8633 14 8.99992 14C6.05822 14 3.6119 11.8835 3.09884 9.09033C3.09332 9.0603 3.08803 9.03019 3.08296 9H4.09984Z" stroke="#2A5778" stroke-width="0.8" stroke-linecap="round"/>
</svg>
