<svg width="25" height="25" viewBox="0 0 25 25" fill="none" xmlns="http://www.w3.org/2000/svg">
<path d="M20.5 12.5C20.5 11.397 19.603 10.5 18.5 10.5H17.5V7.5C17.5 4.743 15.257 2.5 12.5 2.5C9.743 2.5 7.5 4.743 7.5 7.5V10.5H6.5C5.397 10.5 4.5 11.397 4.5 12.5V20.5C4.5 21.603 5.397 22.5 6.5 22.5H18.5C19.603 22.5 20.5 21.603 20.5 20.5V12.5ZM9.5 7.5C9.5 5.846 10.846 4.5 12.5 4.5C14.154 4.5 15.5 5.846 15.5 7.5V10.5H9.5V7.5Z" fill="#00355D"/>
<path d="M20.5 12.5C20.5 11.397 19.603 10.5 18.5 10.5H17.5V7.5C17.5 4.743 15.257 2.5 12.5 2.5C9.743 2.5 7.5 4.743 7.5 7.5V10.5H6.5C5.397 10.5 4.5 11.397 4.5 12.5V20.5C4.5 21.603 5.397 22.5 6.5 22.5H18.5C19.603 22.5 20.5 21.603 20.5 20.5V12.5ZM9.5 7.5C9.5 5.846 10.846 4.5 12.5 4.5C14.154 4.5 15.5 5.846 15.5 7.5V10.5H9.5V7.5Z" fill="black" fill-opacity="0.2"/>
<path d="M20.5 12.5C20.5 11.397 19.603 10.5 18.5 10.5H17.5V7.5C17.5 4.743 15.257 2.5 12.5 2.5C9.743 2.5 7.5 4.743 7.5 7.5V10.5H6.5C5.397 10.5 4.5 11.397 4.5 12.5V20.5C4.5 21.603 5.397 22.5 6.5 22.5H18.5C19.603 22.5 20.5 21.603 20.5 20.5V12.5ZM9.5 7.5C9.5 5.846 10.846 4.5 12.5 4.5C14.154 4.5 15.5 5.846 15.5 7.5V10.5H9.5V7.5Z" fill="black" fill-opacity="0.2"/>
</svg>
