<svg width="25" height="26" viewBox="0 0 25 26" fill="none" xmlns="http://www.w3.org/2000/svg">
<path d="M1.5625 17.6875C1.5625 16.8246 2.26206 16.125 3.125 16.125H6.25C7.11294 16.125 7.8125 16.8246 7.8125 17.6875V22.375C7.8125 23.2379 7.11294 23.9375 6.25 23.9375H3.125C2.26206 23.9375 1.5625 23.2379 1.5625 22.375V17.6875Z" fill="#00355D"/>
<path d="M1.5625 17.6875C1.5625 16.8246 2.26206 16.125 3.125 16.125H6.25C7.11294 16.125 7.8125 16.8246 7.8125 17.6875V22.375C7.8125 23.2379 7.11294 23.9375 6.25 23.9375H3.125C2.26206 23.9375 1.5625 23.2379 1.5625 22.375V17.6875Z" fill="black" fill-opacity="0.2"/>
<path d="M1.5625 17.6875C1.5625 16.8246 2.26206 16.125 3.125 16.125H6.25C7.11294 16.125 7.8125 16.8246 7.8125 17.6875V22.375C7.8125 23.2379 7.11294 23.9375 6.25 23.9375H3.125C2.26206 23.9375 1.5625 23.2379 1.5625 22.375V17.6875Z" fill="black" fill-opacity="0.2"/>
<path d="M9.375 11.4375C9.375 10.5746 10.0746 9.875 10.9375 9.875H14.0625C14.9254 9.875 15.625 10.5746 15.625 11.4375V22.375C15.625 23.2379 14.9254 23.9375 14.0625 23.9375H10.9375C10.0746 23.9375 9.375 23.2379 9.375 22.375V11.4375Z" fill="#00355D"/>
<path d="M9.375 11.4375C9.375 10.5746 10.0746 9.875 10.9375 9.875H14.0625C14.9254 9.875 15.625 10.5746 15.625 11.4375V22.375C15.625 23.2379 14.9254 23.9375 14.0625 23.9375H10.9375C10.0746 23.9375 9.375 23.2379 9.375 22.375V11.4375Z" fill="black" fill-opacity="0.2"/>
<path d="M9.375 11.4375C9.375 10.5746 10.0746 9.875 10.9375 9.875H14.0625C14.9254 9.875 15.625 10.5746 15.625 11.4375V22.375C15.625 23.2379 14.9254 23.9375 14.0625 23.9375H10.9375C10.0746 23.9375 9.375 23.2379 9.375 22.375V11.4375Z" fill="black" fill-opacity="0.2"/>
<path d="M17.1875 3.625C17.1875 2.76206 17.8871 2.0625 18.75 2.0625H21.875C22.7379 2.0625 23.4375 2.76206 23.4375 3.625V22.375C23.4375 23.2379 22.7379 23.9375 21.875 23.9375H18.75C17.8871 23.9375 17.1875 23.2379 17.1875 22.375V3.625Z" fill="#00355D"/>
<path d="M17.1875 3.625C17.1875 2.76206 17.8871 2.0625 18.75 2.0625H21.875C22.7379 2.0625 23.4375 2.76206 23.4375 3.625V22.375C23.4375 23.2379 22.7379 23.9375 21.875 23.9375H18.75C17.8871 23.9375 17.1875 23.2379 17.1875 22.375V3.625Z" fill="black" fill-opacity="0.2"/>
<path d="M17.1875 3.625C17.1875 2.76206 17.8871 2.0625 18.75 2.0625H21.875C22.7379 2.0625 23.4375 2.76206 23.4375 3.625V22.375C23.4375 23.2379 22.7379 23.9375 21.875 23.9375H18.75C17.8871 23.9375 17.1875 23.2379 17.1875 22.375V3.625Z" fill="black" fill-opacity="0.2"/>
</svg>
