<svg width="25" height="25" viewBox="0 0 25 25" fill="none" xmlns="http://www.w3.org/2000/svg">
<path d="M12.4997 9.505C13.5606 9.505 14.578 9.92643 15.3281 10.6766C16.0783 11.4267 16.4997 12.4441 16.4997 13.505C16.4997 14.5659 16.0783 15.5833 15.3281 16.3334C14.578 17.0836 13.5606 17.505 12.4997 17.505C11.4388 17.505 10.4214 17.0836 9.67127 16.3334C8.92113 15.5833 8.4997 14.5659 8.4997 13.505C8.4997 12.4441 8.92113 11.4267 9.67127 10.6766C10.4214 9.92643 11.4388 9.505 12.4997 9.505ZM12.4997 6C17.1127 6 21.0957 9.15 22.2007 13.564C22.2491 13.7569 22.2189 13.9612 22.1167 14.1319C22.0145 14.3025 21.8486 14.4256 21.6557 14.474C21.4628 14.5224 21.2585 14.4922 21.0878 14.39C20.9172 14.2878 20.7941 14.1219 20.7457 13.929C20.2827 12.0925 19.2199 10.4631 17.7257 9.29913C16.2316 8.1352 14.3916 7.50338 12.4976 7.50384C10.6036 7.5043 8.76401 8.13701 7.27043 9.30167C5.77684 10.4663 4.7148 12.0962 4.2527 13.933C4.22886 14.0286 4.18643 14.1186 4.12783 14.1978C4.06922 14.277 3.99559 14.3439 3.91113 14.3946C3.82668 14.4454 3.73305 14.479 3.63561 14.4935C3.53816 14.5081 3.4388 14.5033 3.3432 14.4795C3.2476 14.4557 3.15762 14.4132 3.07842 14.3546C2.99922 14.296 2.93233 14.2224 2.88158 14.1379C2.83084 14.0535 2.79722 13.9599 2.78266 13.8624C2.76809 13.765 2.77286 13.6656 2.7967 13.57C3.33901 11.4073 4.58835 9.48777 6.3463 8.11627C8.10425 6.74476 10.27 5.99991 12.4997 6Z" fill="#00355D"/>
<path d="M12.4997 9.505C13.5606 9.505 14.578 9.92643 15.3281 10.6766C16.0783 11.4267 16.4997 12.4441 16.4997 13.505C16.4997 14.5659 16.0783 15.5833 15.3281 16.3334C14.578 17.0836 13.5606 17.505 12.4997 17.505C11.4388 17.505 10.4214 17.0836 9.67127 16.3334C8.92113 15.5833 8.4997 14.5659 8.4997 13.505C8.4997 12.4441 8.92113 11.4267 9.67127 10.6766C10.4214 9.92643 11.4388 9.505 12.4997 9.505ZM12.4997 6C17.1127 6 21.0957 9.15 22.2007 13.564C22.2491 13.7569 22.2189 13.9612 22.1167 14.1319C22.0145 14.3025 21.8486 14.4256 21.6557 14.474C21.4628 14.5224 21.2585 14.4922 21.0878 14.39C20.9172 14.2878 20.7941 14.1219 20.7457 13.929C20.2827 12.0925 19.2199 10.4631 17.7257 9.29913C16.2316 8.1352 14.3916 7.50338 12.4976 7.50384C10.6036 7.5043 8.76401 8.13701 7.27043 9.30167C5.77684 10.4663 4.7148 12.0962 4.2527 13.933C4.22886 14.0286 4.18643 14.1186 4.12783 14.1978C4.06922 14.277 3.99559 14.3439 3.91113 14.3946C3.82668 14.4454 3.73305 14.479 3.63561 14.4935C3.53816 14.5081 3.4388 14.5033 3.3432 14.4795C3.2476 14.4557 3.15762 14.4132 3.07842 14.3546C2.99922 14.296 2.93233 14.2224 2.88158 14.1379C2.83084 14.0535 2.79722 13.9599 2.78266 13.8624C2.76809 13.765 2.77286 13.6656 2.7967 13.57C3.33901 11.4073 4.58835 9.48777 6.3463 8.11627C8.10425 6.74476 10.27 5.99991 12.4997 6Z" fill="black" fill-opacity="0.2"/>
<path d="M12.4997 9.505C13.5606 9.505 14.578 9.92643 15.3281 10.6766C16.0783 11.4267 16.4997 12.4441 16.4997 13.505C16.4997 14.5659 16.0783 15.5833 15.3281 16.3334C14.578 17.0836 13.5606 17.505 12.4997 17.505C11.4388 17.505 10.4214 17.0836 9.67127 16.3334C8.92113 15.5833 8.4997 14.5659 8.4997 13.505C8.4997 12.4441 8.92113 11.4267 9.67127 10.6766C10.4214 9.92643 11.4388 9.505 12.4997 9.505ZM12.4997 6C17.1127 6 21.0957 9.15 22.2007 13.564C22.2491 13.7569 22.2189 13.9612 22.1167 14.1319C22.0145 14.3025 21.8486 14.4256 21.6557 14.474C21.4628 14.5224 21.2585 14.4922 21.0878 14.39C20.9172 14.2878 20.7941 14.1219 20.7457 13.929C20.2827 12.0925 19.2199 10.4631 17.7257 9.29913C16.2316 8.1352 14.3916 7.50338 12.4976 7.50384C10.6036 7.5043 8.76401 8.13701 7.27043 9.30167C5.77684 10.4663 4.7148 12.0962 4.2527 13.933C4.22886 14.0286 4.18643 14.1186 4.12783 14.1978C4.06922 14.277 3.99559 14.3439 3.91113 14.3946C3.82668 14.4454 3.73305 14.479 3.63561 14.4935C3.53816 14.5081 3.4388 14.5033 3.3432 14.4795C3.2476 14.4557 3.15762 14.4132 3.07842 14.3546C2.99922 14.296 2.93233 14.2224 2.88158 14.1379C2.83084 14.0535 2.79722 13.9599 2.78266 13.8624C2.76809 13.765 2.77286 13.6656 2.7967 13.57C3.33901 11.4073 4.58835 9.48777 6.3463 8.11627C8.10425 6.74476 10.27 5.99991 12.4997 6Z" fill="black" fill-opacity="0.2"/>
</svg>
