<svg width="17" height="16" viewBox="0 0 17 16" fill="none" xmlns="http://www.w3.org/2000/svg">
<g clip-path="url(#clip0_1855_2508)">
<path d="M14.2813 1.84065L14.6594 2.21877C14.9531 2.51252 14.9531 2.98752 14.6594 3.27815L13.75 4.19065L12.3094 2.75002L13.2188 1.84065C13.5125 1.5469 13.9875 1.5469 14.2781 1.84065H14.2813ZM7.05625 8.00628L11.25 3.8094L12.6906 5.25002L8.49375 9.44378C8.40313 9.5344 8.29063 9.60003 8.16875 9.6344L6.34063 10.1563L6.8625 8.32815C6.89688 8.20628 6.9625 8.09378 7.05313 8.00315L7.05625 8.00628ZM12.1594 0.781274L5.99375 6.94378C5.72188 7.21565 5.525 7.55003 5.42188 7.91565L4.52813 11.0407C4.45313 11.3032 4.525 11.5844 4.71875 11.7782C4.9125 11.9719 5.19375 12.0438 5.45625 11.9688L8.58125 11.075C8.95 10.9688 9.28438 10.7719 9.55313 10.5032L15.7188 4.34065C16.5969 3.46252 16.5969 2.03752 15.7188 1.1594L15.3406 0.781274C14.4625 -0.0968506 13.0375 -0.0968506 12.1594 0.781274ZM3.25 2.00002C1.73125 2.00002 0.5 3.23127 0.5 4.75002V13.25C0.5 14.7688 1.73125 16 3.25 16H11.75C13.2688 16 14.5 14.7688 14.5 13.25V9.75003C14.5 9.3344 14.1656 9.00003 13.75 9.00003C13.3344 9.00003 13 9.3344 13 9.75003V13.25C13 13.9407 12.4406 14.5 11.75 14.5H3.25C2.55938 14.5 2 13.9407 2 13.25V4.75002C2 4.0594 2.55938 3.50002 3.25 3.50002H6.75C7.16563 3.50002 7.5 3.16565 7.5 2.75002C7.5 2.3344 7.16563 2.00002 6.75 2.00002H3.25Z" fill="#0074BD"/>
</g>
<defs>
<clipPath id="clip0_1855_2508">
<rect width="16" height="16" fill="white" transform="translate(0.5)"/>
</clipPath>
</defs>
</svg>
