<svg width="19" height="18" viewBox="0 0 19 18" fill="none" xmlns="http://www.w3.org/2000/svg">
<path d="M8 4.5H11C11 4.10217 10.842 3.72064 10.5607 3.43934C10.2794 3.15804 9.89782 3 9.5 3C9.10217 3 8.72064 3.15804 8.43934 3.43934C8.15804 3.72064 8 4.10217 8 4.5ZM6.5 4.5C6.5 3.70435 6.81607 2.94129 7.37868 2.37868C7.94129 1.81607 8.70435 1.5 9.5 1.5C10.2956 1.5 11.0587 1.81607 11.6213 2.37868C12.1839 2.94129 12.5 3.70435 12.5 4.5H16.25C16.4489 4.5 16.6397 4.57902 16.7803 4.71967C16.921 4.86032 17 5.05109 17 5.25C17 5.44891 16.921 5.63968 16.7803 5.78033C16.6397 5.92098 16.4489 6 16.25 6H15.5885L14.924 13.755C14.8601 14.5038 14.5175 15.2014 13.9639 15.7098C13.4103 16.2181 12.6861 16.5001 11.9345 16.5H7.0655C6.31393 16.5001 5.58971 16.2181 5.03611 15.7098C4.48252 15.2014 4.13988 14.5038 4.076 13.755L3.4115 6H2.75C2.55109 6 2.36032 5.92098 2.21967 5.78033C2.07902 5.63968 2 5.44891 2 5.25C2 5.05109 2.07902 4.86032 2.21967 4.71967C2.36032 4.57902 2.55109 4.5 2.75 4.5H6.5ZM11.75 9C11.75 8.80109 11.671 8.61032 11.5303 8.46967C11.3897 8.32902 11.1989 8.25 11 8.25C10.8011 8.25 10.6103 8.32902 10.4697 8.46967C10.329 8.61032 10.25 8.80109 10.25 9V12C10.25 12.1989 10.329 12.3897 10.4697 12.5303C10.6103 12.671 10.8011 12.75 11 12.75C11.1989 12.75 11.3897 12.671 11.5303 12.5303C11.671 12.3897 11.75 12.1989 11.75 12V9ZM8 8.25C8.19891 8.25 8.38968 8.32902 8.53033 8.46967C8.67098 8.61032 8.75 8.80109 8.75 9V12C8.75 12.1989 8.67098 12.3897 8.53033 12.5303C8.38968 12.671 8.19891 12.75 8 12.75C7.80109 12.75 7.61032 12.671 7.46967 12.5303C7.32902 12.3897 7.25 12.1989 7.25 12V9C7.25 8.80109 7.32902 8.61032 7.46967 8.46967C7.61032 8.32902 7.80109 8.25 8 8.25ZM5.57 13.6275C5.60195 14.0021 5.77338 14.351 6.05033 14.6051C6.32729 14.8593 6.68959 15.0002 7.0655 15H11.9345C12.3102 14.9999 12.6721 14.8588 12.9487 14.6046C13.2254 14.3505 13.3966 14.0018 13.4285 13.6275L14.0825 6H4.9175L5.57 13.6275Z" fill="#FF0000"/>
</svg>
