<svg width="20" height="20" viewBox="0 0 20 20" fill="none" xmlns="http://www.w3.org/2000/svg">
<path d="M9.39421 16.9275C9.31902 17.0071 9.26025 17.1007 9.22124 17.2029C9.18222 17.3052 9.16374 17.4142 9.16683 17.5236C9.16993 17.633 9.19454 17.7407 9.23928 17.8406C9.28401 17.9406 9.34798 18.0307 9.42754 18.1058C9.5071 18.181 9.60069 18.2398 9.70296 18.2788C9.80524 18.3178 9.91419 18.3363 10.0236 18.3332C10.133 18.3301 10.2408 18.3055 10.3407 18.2608C10.4406 18.216 10.5307 18.1521 10.6059 18.0725L17.6892 10.5725C17.8355 10.4178 17.917 10.2129 17.917 10C17.917 9.78709 17.8355 9.58224 17.6892 9.42752L10.6059 1.92668C10.5312 1.84538 10.4411 1.77973 10.3408 1.73354C10.2405 1.68736 10.1321 1.66155 10.0218 1.65763C9.91144 1.65371 9.80143 1.67175 9.69813 1.71071C9.59484 1.74966 9.50031 1.80875 9.42004 1.88455C9.33978 1.96035 9.27537 2.05133 9.23056 2.15223C9.18576 2.25313 9.16145 2.36192 9.15904 2.4723C9.15664 2.58267 9.17619 2.69242 9.21656 2.79517C9.25693 2.89792 9.31732 2.99163 9.39421 3.07085L15.9375 10L9.39421 16.9275Z" fill="#BDBDBD"/>
</svg>
