<svg width="25" height="24" viewBox="0 0 25 24" fill="none" xmlns="http://www.w3.org/2000/svg">
<path d="M13.25 4.125C13.25 3.82663 13.1315 3.54048 12.9205 3.3295C12.7095 3.11853 12.4234 3 12.125 3C11.8266 3 11.5405 3.11853 11.3295 3.3295C11.1185 3.54048 11 3.82663 11 4.125V10.5H4.625C4.32663 10.5 4.04048 10.6185 3.8295 10.8295C3.61853 11.0405 3.5 11.3266 3.5 11.625C3.5 11.9234 3.61853 12.2095 3.8295 12.4205C4.04048 12.6315 4.32663 12.75 4.625 12.75H11V19.125C11 19.4234 11.1185 19.7095 11.3295 19.9205C11.5405 20.1315 11.8266 20.25 12.125 20.25C12.4234 20.25 12.7095 20.1315 12.9205 19.9205C13.1315 19.7095 13.25 19.4234 13.25 19.125V12.75H19.625C19.9234 12.75 20.2095 12.6315 20.4205 12.4205C20.6315 12.2095 20.75 11.9234 20.75 11.625C20.75 11.3266 20.6315 11.0405 20.4205 10.8295C20.2095 10.6185 19.9234 10.5 19.625 10.5H13.25V4.125Z" fill="white"/>
</svg>
