<svg width="201" height="116" viewBox="0 0 201 116" fill="none" xmlns="http://www.w3.org/2000/svg">
<g filter="url(#filter0_d_1061_1715)">
<circle cx="120.5" cy="58" r="70" fill="#FFF5D2"/>
</g>
<path d="M117.89 35.1237C115.62 34.2973 113.109 35.4679 112.283 37.7385L111.784 39.1089L122.747 43.0991L123.246 41.7287C124.072 39.4582 122.901 36.9476 120.631 36.1212L117.89 35.1237Z" fill="#00355D"/>
<path d="M117.89 35.1237C115.62 34.2973 113.109 35.4679 112.283 37.7385L111.784 39.1089L122.747 43.0991L123.246 41.7287C124.072 39.4582 122.901 36.9476 120.631 36.1212L117.89 35.1237Z" fill="black" fill-opacity="0.2"/>
<path d="M117.89 35.1237C115.62 34.2973 113.109 35.4679 112.283 37.7385L111.784 39.1089L122.747 43.0991L123.246 41.7287C124.072 39.4582 122.901 36.9476 120.631 36.1212L117.89 35.1237Z" fill="black" fill-opacity="0.2"/>
<path d="M121.749 45.8399L120.752 48.5806L126.233 50.5758L127.231 47.835L138.194 51.8252L137.314 54.2425C137.125 54.7615 137.246 55.3428 137.626 55.7439L139.631 57.8619C140.77 59.0652 141.132 60.809 140.565 62.3662L134.697 78.4873L118.253 72.5019L119.749 68.3908C119.881 68.0273 120.153 67.7313 120.503 67.5678L123.694 66.0799L124.485 63.9068C124.761 63.1499 124.37 62.3131 123.613 62.0376L115.391 59.0449C114.634 58.7695 113.797 59.1597 113.522 59.9165L112.731 62.0897L114.219 65.2805C114.382 65.6311 114.4 66.0322 114.268 66.3956L112.771 70.5068L96.3267 64.5214L102.194 48.4003C102.761 46.8431 104.159 45.7398 105.805 45.5504L108.703 45.2169C109.252 45.1537 109.717 44.786 109.906 44.2669L110.786 41.8496L121.749 45.8399Z" fill="#00355D"/>
<path d="M121.749 45.8399L120.752 48.5806L126.233 50.5758L127.231 47.835L138.194 51.8252L137.314 54.2425C137.125 54.7615 137.246 55.3428 137.626 55.7439L139.631 57.8619C140.77 59.0652 141.132 60.809 140.565 62.3662L134.697 78.4873L118.253 72.5019L119.749 68.3908C119.881 68.0273 120.153 67.7313 120.503 67.5678L123.694 66.0799L124.485 63.9068C124.761 63.1499 124.37 62.3131 123.613 62.0376L115.391 59.0449C114.634 58.7695 113.797 59.1597 113.522 59.9165L112.731 62.0897L114.219 65.2805C114.382 65.6311 114.4 66.0322 114.268 66.3956L112.771 70.5068L96.3267 64.5214L102.194 48.4003C102.761 46.8431 104.159 45.7398 105.805 45.5504L108.703 45.2169C109.252 45.1537 109.717 44.786 109.906 44.2669L110.786 41.8496L121.749 45.8399Z" fill="black" fill-opacity="0.2"/>
<path d="M121.749 45.8399L120.752 48.5806L126.233 50.5758L127.231 47.835L138.194 51.8252L137.314 54.2425C137.125 54.7615 137.246 55.3428 137.626 55.7439L139.631 57.8619C140.77 59.0652 141.132 60.809 140.565 62.3662L134.697 78.4873L118.253 72.5019L119.749 68.3908C119.881 68.0273 120.153 67.7313 120.503 67.5678L123.694 66.0799L124.485 63.9068C124.761 63.1499 124.37 62.3131 123.613 62.0376L115.391 59.0449C114.634 58.7695 113.797 59.1597 113.522 59.9165L112.731 62.0897L114.219 65.2805C114.382 65.6311 114.4 66.0322 114.268 66.3956L112.771 70.5068L96.3267 64.5214L102.194 48.4003C102.761 46.8431 104.159 45.7398 105.805 45.5504L108.703 45.2169C109.252 45.1537 109.717 44.786 109.906 44.2669L110.786 41.8496L121.749 45.8399Z" fill="black" fill-opacity="0.2"/>
<path d="M95.3291 67.2622L94.8303 68.6326C94.0039 70.9031 95.1746 73.4137 97.4451 74.2401L105.667 77.2328C107.938 78.0592 110.449 76.8885 111.275 74.618L111.774 73.2476L95.3291 67.2622Z" fill="#00355D"/>
<path d="M95.3291 67.2622L94.8303 68.6326C94.0039 70.9031 95.1746 73.4137 97.4451 74.2401L105.667 77.2328C107.938 78.0592 110.449 76.8885 111.275 74.618L111.774 73.2476L95.3291 67.2622Z" fill="black" fill-opacity="0.2"/>
<path d="M95.3291 67.2622L94.8303 68.6326C94.0039 70.9031 95.1746 73.4137 97.4451 74.2401L105.667 77.2328C107.938 78.0592 110.449 76.8885 111.275 74.618L111.774 73.2476L95.3291 67.2622Z" fill="black" fill-opacity="0.2"/>
<path d="M117.255 75.2427L116.756 76.6131C115.93 78.8836 117.101 81.3942 119.371 82.2206L127.594 85.2132C129.864 86.0396 132.375 84.869 133.201 82.5984L133.7 81.228L117.255 75.2427Z" fill="#00355D"/>
<path d="M117.255 75.2427L116.756 76.6131C115.93 78.8836 117.101 81.3942 119.371 82.2206L127.594 85.2132C129.864 86.0396 132.375 84.869 133.201 82.5984L133.7 81.228L117.255 75.2427Z" fill="black" fill-opacity="0.2"/>
<path d="M117.255 75.2427L116.756 76.6131C115.93 78.8836 117.101 81.3942 119.371 82.2206L127.594 85.2132C129.864 86.0396 132.375 84.869 133.201 82.5984L133.7 81.228L117.255 75.2427Z" fill="black" fill-opacity="0.2"/>
<path d="M139.191 49.0844L128.228 45.0942L128.727 43.7238C129.554 41.4533 132.064 40.2826 134.335 41.109L137.075 42.1066C139.346 42.933 140.517 45.4435 139.69 47.7141L139.191 49.0844Z" fill="#00355D"/>
<path d="M139.191 49.0844L128.228 45.0942L128.727 43.7238C129.554 41.4533 132.064 40.2826 134.335 41.109L137.075 42.1066C139.346 42.933 140.517 45.4435 139.69 47.7141L139.191 49.0844Z" fill="black" fill-opacity="0.2"/>
<path d="M139.191 49.0844L128.228 45.0942L128.727 43.7238C129.554 41.4533 132.064 40.2826 134.335 41.109L137.075 42.1066C139.346 42.933 140.517 45.4435 139.69 47.7141L139.191 49.0844Z" fill="black" fill-opacity="0.2"/>
<defs>
<filter id="filter0_d_1061_1715" x="0.5" y="-38" width="200" height="200" filterUnits="userSpaceOnUse" color-interpolation-filters="sRGB">
<feFlood flood-opacity="0" result="BackgroundImageFix"/>
<feColorMatrix in="SourceAlpha" type="matrix" values="0 0 0 0 0 0 0 0 0 0 0 0 0 0 0 0 0 0 127 0" result="hardAlpha"/>
<feOffset dx="-20" dy="4"/>
<feGaussianBlur stdDeviation="15"/>
<feComposite in2="hardAlpha" operator="out"/>
<feColorMatrix type="matrix" values="0 0 0 0 0.831373 0 0 0 0 0.8 0 0 0 0 0.686275 0 0 0 0.25 0"/>
<feBlend mode="normal" in2="BackgroundImageFix" result="effect1_dropShadow_1061_1715"/>
<feBlend mode="normal" in="SourceGraphic" in2="effect1_dropShadow_1061_1715" result="shape"/>
</filter>
</defs>
</svg>
