<svg width="161" height="110" viewBox="0 0 161 110" fill="none" xmlns="http://www.w3.org/2000/svg">
<rect x="0.5" width="160" height="110" fill="white"/>
<path d="M128.008 76.9999C102.999 76.9999 91.0027 98.9999 88.1309 110H160.5V51.3333C160.09 59.8888 153.017 76.9999 128.008 76.9999Z" fill="#CFF6E7"/>
<path d="M25.8781 25.7792C39.6177 19.3159 42.9528 5.06703 43.4971 0L0.500294 7.63526e-06L0.500295 27.8667C3.76587 29.8935 12.5476 32.0501 25.8781 25.7792Z" fill="#CFF6E7"/>
<g opacity="0.2">
<path d="M124.453 97.6513C113.433 97.6513 104.5 96.9172 104.5 96.0117C104.5 95.1061 113.433 94.372 124.453 94.372C135.472 94.372 144.405 95.1061 144.405 96.0117C144.405 96.9172 135.472 97.6513 124.453 97.6513Z" fill="#369FFF"/>
</g>
<path d="M121.444 96.778C130.148 96.472 139.153 95.284 143.814 79.2418C145.201 74.4726 144.3 70.862 142.778 68.1397C142.403 67.4666 141.989 66.8504 141.563 66.2827C141.402 66.0696 141.24 65.8628 141.077 65.6623C137.676 61.4903 131.972 59.9941 126.913 61.8385C124.077 62.8725 120.439 64.4004 117.196 66.3882C110.679 70.3829 109.149 74.9348 107.02 82.7469C106.836 83.418 106.655 84.1692 106.516 84.969C106.442 85.3953 106.381 85.8363 106.338 86.2837C105.866 91.2808 107.792 97.257 121.444 96.778Z" fill="#8AC53E"/>
<path d="M106.333 86.2856C106.622 87.0981 107.034 87.9253 107.582 88.7103C109.228 91.0696 112.658 93.9184 119.638 94.1041C119.946 94.1126 120.248 94.1168 120.548 94.1168C123.215 94.1168 125.568 93.7939 127.718 93.1376C129.968 92.4518 131.931 91.4136 133.72 89.9701C136.71 87.556 139.177 84.0256 141.712 78.5241C142.714 76.3506 143.233 74.1474 143.254 71.976C143.267 70.6824 143.106 69.3973 142.771 68.1438C142.395 67.4706 141.982 66.8544 141.555 66.2867C141.663 66.5358 141.769 66.7974 141.868 67.0696C142.779 69.5703 143.408 73.5502 141.22 78.2983C136.769 87.957 131.61 93.8783 119.651 93.566C112.894 93.3888 109.598 90.6602 108.023 88.4043C107.2 87.2268 106.736 86.0345 106.508 84.9731C106.437 85.3972 106.375 85.8362 106.333 86.2856Z" fill="#006838" fill-opacity="0.4"/>
<path d="M118.794 56.6803C118.794 56.6803 113.328 64.0957 112.081 67.7908C110.834 71.4859 113.86 74.1089 113.86 74.1089L116.671 75.164C116.671 75.1619 119.56 62.1184 118.794 56.6803Z" fill="#006ED3"/>
<path d="M119.272 77.4529C121.661 78.2442 127.498 80.3207 130.032 79.4809C130.14 79.445 130.239 79.4049 130.334 79.3585C130.61 79.2234 130.832 79.0419 130.988 78.8056C131.982 77.2925 132.967 70.9428 132.524 67.2118C132.469 66.7455 132.442 66.239 132.433 65.7072C132.421 64.9243 132.446 64.0865 132.48 63.2445C132.604 60.0749 133.105 57.8866 131.748 57.1164C130.53 56.4242 128.99 55.884 128.008 55.6497C127.401 55.5041 126.404 55.2002 125.706 55.2129L122.684 55.7616C122.684 55.7616 120.076 56.1963 119.474 56.6416C118.873 57.0847 118.565 59.0409 117.478 60.8325C116.391 62.6241 116.155 64.4221 117.193 66.3888C118.096 68.1002 117.938 67.4503 118.056 70.2569C118.2 73.6966 114.606 75.9082 119.272 77.4529Z" fill="white"/>
<g opacity="0.8">
<g opacity="0.8">
<path opacity="0.8" d="M127.301 61.3361C127.301 61.3361 124.026 60.4899 119.845 61.2707L119.744 64.1597C119.744 64.1597 124.34 63.649 127.235 64.3855L127.301 61.3361Z" fill="#CED3E6"/>
</g>
</g>
<g opacity="0.8">
<path opacity="0.8" d="M123.535 58.8971C123.579 58.8971 123.623 58.895 123.67 58.8929C125.459 58.8 127.101 57.2216 127.168 57.154C127.217 57.1076 127.217 57.0295 127.171 56.981C127.124 56.9324 127.046 56.9324 126.997 56.9789C126.981 56.9936 125.354 58.5616 123.657 58.6481C122.032 58.7346 121.836 57.1224 121.827 57.0527C121.819 56.9852 121.76 56.9367 121.692 56.9451C121.625 56.9514 121.576 57.0126 121.585 57.0802C121.585 57.0992 121.8 58.8971 123.535 58.8971Z" fill="#CED3E6"/>
</g>
<g opacity="0.8">
<path opacity="0.8" d="M128.605 73.3605C128.618 73.35 128.629 73.3394 128.639 73.3246C128.675 73.2634 128.656 73.1854 128.597 73.1495C126.269 71.7398 124.037 71.2439 122.574 71.0751C120.985 70.8915 119.962 71.0392 119.92 71.0477C119.85 71.0582 119.801 71.1237 119.812 71.1933C119.822 71.2629 119.888 71.3115 119.957 71.3009C119.968 71.2988 120.998 71.1511 122.555 71.3326C123.99 71.4993 126.183 71.9889 128.466 73.3711C128.508 73.3943 128.563 73.3901 128.605 73.3605Z" fill="#CED3E6"/>
</g>
<path d="M125.567 78.6023C127.718 77.9207 129.663 76.549 130.991 75.3272C131.096 75.2301 131.198 75.1351 131.295 75.0402C131.983 74.3712 132.468 74.7152 132.679 74.3311C133.483 72.8603 133.027 67.0887 132.679 64.9679C132.331 62.8492 133.793 58.9663 133.006 57.5778C132.219 56.1892 129.507 55.7039 129.507 55.7039C129.507 55.7039 129.891 55.2565 129.163 54.7437C128.435 54.2309 126.498 54.4441 126.498 54.4441C126.405 63.6173 125.105 72.1365 125.567 78.6023Z" fill="#369FFF"/>
<path d="M127.683 75.9721C127.742 75.9721 127.792 75.9299 127.801 75.8708C128.78 69.5084 127.811 57.539 127.801 57.4187C127.794 57.3533 127.737 57.3048 127.672 57.309C127.607 57.3153 127.556 57.3723 127.562 57.4377C127.573 57.558 128.537 69.4978 127.562 75.8328C127.552 75.8982 127.598 75.9594 127.664 75.97C127.67 75.9721 127.676 75.9721 127.683 75.9721Z" fill="white"/>
<path d="M125.712 76.9268C125.769 76.9268 125.82 76.8867 125.831 76.8277C127.112 69.5198 127.213 56.9089 127.213 56.7823C127.213 56.7169 127.16 56.662 127.095 56.662C127.029 56.662 126.974 56.7148 126.974 56.7802C126.974 56.9068 126.871 69.4966 125.594 76.7855C125.584 76.8509 125.626 76.9121 125.691 76.9247C125.7 76.9268 125.706 76.9268 125.712 76.9268Z" fill="#006ED3"/>
<path d="M127.833 56.7114C127.844 56.7114 127.854 56.7093 127.865 56.7072C128.878 56.4368 129.498 55.8389 129.526 55.8136C129.572 55.7671 129.574 55.6911 129.528 55.6446C129.481 55.5981 129.405 55.596 129.359 55.6425C129.353 55.6488 128.755 56.2234 127.806 56.4769C127.742 56.4938 127.704 56.5593 127.721 56.6248C127.732 56.6755 127.78 56.7114 127.833 56.7114Z" fill="#006ED3"/>
<path d="M116.253 74.5969C116.253 74.5969 117.019 77.1777 119.872 78.408C120.226 71.4104 121.028 63.4188 122.064 54.9187C122.064 54.9187 120.973 54.7267 120.52 55.3513C120.323 55.6193 120.281 56.0751 120.281 56.0751C120.281 56.0751 119.724 56.1828 119.114 56.4676C118.504 56.7525 118.574 57.1429 118.428 58.1347C118.283 59.1266 116.751 60.6607 116.253 62.7393C115.755 64.8179 117.076 66.1432 117.487 67.8883C117.901 69.6293 116.253 74.5969 116.253 74.5969Z" fill="#369FFF"/>
<path d="M118.699 75.6796C118.764 75.6796 118.817 75.6289 118.819 75.5635C119.095 66.0441 120.834 57.5377 120.851 57.4533C120.864 57.3879 120.824 57.3246 120.758 57.3119C120.693 57.2992 120.63 57.3393 120.617 57.4047C120.6 57.4892 118.857 66.0146 118.581 75.5572C118.578 75.6226 118.631 75.6796 118.697 75.6796C118.697 75.6796 118.697 75.6796 118.699 75.6796Z" fill="white"/>
<path d="M121.328 56.975C121.385 56.975 121.435 56.9328 121.446 56.8757C121.456 56.8102 121.412 56.749 121.349 56.7363C121.34 56.7342 120.572 56.5947 120.397 56.0391C120.378 55.9758 120.31 55.9398 120.247 55.961C120.184 55.98 120.15 56.0476 120.169 56.111C120.391 56.8081 121.273 56.9666 121.309 56.9729C121.315 56.9729 121.321 56.975 121.328 56.975Z" fill="#006ED3"/>
<path d="M118.981 75.6794C119.041 75.6794 119.093 75.635 119.1 75.5739C119.944 68.5551 121.277 57.3391 121.29 57.2273C121.299 57.1619 121.25 57.1028 121.185 57.0943C121.119 57.0859 121.06 57.1344 121.052 57.1999C121.039 57.3117 119.705 68.5298 118.861 75.5464C118.853 75.6118 118.899 75.6709 118.967 75.6794C118.973 75.6794 118.977 75.6794 118.981 75.6794Z" fill="#006ED3"/>
<path d="M126.064 80.7184C125.699 80.9801 125.125 81.2523 124.262 81.5267C119.366 83.084 114.878 80.5707 114.878 80.5707C114.606 79.2307 114.774 77.7071 115.226 77.15C115.085 76.9516 115.177 76.7153 115.177 76.7153L110.672 72.0389C113.234 74.1619 116.403 74.8561 118.87 76.3481C118.87 76.3481 118.87 76.3481 118.872 76.3481C119.584 76.7786 120.223 77.1563 120.692 77.418C121.407 77.8189 122.319 77.859 123.213 77.7345C124.956 77.494 126.628 76.6351 126.628 76.6351C126.628 76.6351 132.239 74.0922 133.29 74.1766C134.106 74.242 129.704 78.8361 126.064 80.7184Z" fill="#FF993A"/>
<path d="M117.39 84.6398C117.39 84.6398 118.833 84.2241 119.279 83.7556L120.283 86.1191L116.867 87.1848C116.865 87.1848 116.818 85.1083 117.39 84.6398Z" fill="#EA9B7A"/>
<path d="M109.145 91.4669L113.562 81.6647C113.726 81.6521 113.933 81.6964 114.165 81.7808C115.022 82.0931 116.227 82.9541 117.001 83.4584C117.092 83.5175 117.177 83.5724 117.255 83.6209C117.386 83.7011 117.497 83.7644 117.582 83.8045C118.263 84.1105 117.905 84.4777 117.905 84.4777C116.634 85.1129 117.409 86.9952 116.634 87.4342C116.634 87.4342 116.305 87.6262 115.254 88.0884C114.203 88.5505 113.146 89.6668 112.167 90.5806C110.903 91.7623 110.109 91.8995 109.656 91.7919C109.293 91.7074 109.145 91.4669 109.145 91.4669Z" fill="#006ED3"/>
<path d="M109.154 91.4669L113.57 81.6647C113.735 81.6521 113.942 81.6964 114.174 81.7808L109.664 91.7919C109.301 91.7074 109.154 91.4669 109.154 91.4669Z" fill="#369FFF"/>
<path d="M113.098 82.6649L113.229 82.3737C113.429 82.8147 113.817 83.3148 114.56 83.6082C115.55 83.9964 116.466 83.7095 116.987 83.4604C117.078 83.5195 117.162 83.5744 117.24 83.6229C116.711 83.9078 115.653 84.313 114.467 83.8487C113.758 83.566 113.34 83.1059 113.098 82.6649Z" fill="#369FFF"/>
<path d="M114.752 87.6614C114.784 87.5896 114.864 87.5452 114.947 87.56C115.044 87.5769 115.107 87.6699 115.09 87.7671L114.966 88.4494C114.949 88.5466 114.856 88.61 114.759 88.5931C114.662 88.5762 114.598 88.4832 114.615 88.386L114.74 87.7037C114.742 87.6889 114.746 87.6741 114.752 87.6614Z" fill="white"/>
<path d="M115.541 87.283C115.573 87.2112 115.653 87.1668 115.736 87.1816C115.833 87.1985 115.896 87.2915 115.879 87.3886L115.755 88.071C115.738 88.1682 115.645 88.2316 115.548 88.2147C115.451 88.1978 115.387 88.1048 115.404 88.0076L115.529 87.3253C115.531 87.3084 115.535 87.2957 115.541 87.283Z" fill="white"/>
<path d="M114.102 88.1133C114.134 88.0415 114.214 87.9971 114.296 88.0119C114.393 88.0288 114.457 88.1218 114.44 88.219L114.315 88.9013C114.298 88.9985 114.205 89.0619 114.108 89.045C114.011 89.0281 113.948 88.9351 113.965 88.838L114.089 88.1556C114.091 88.1408 114.096 88.126 114.102 88.1133Z" fill="white"/>
<path d="M113.499 88.5712C113.531 88.4994 113.611 88.455 113.694 88.4698C113.791 88.4867 113.854 88.5797 113.837 88.6769L113.713 89.3592C113.696 89.4564 113.603 89.5198 113.506 89.5029C113.409 89.486 113.345 89.393 113.362 89.2958L113.487 88.6135C113.491 88.5987 113.495 88.5839 113.499 88.5712Z" fill="white"/>
<path d="M112.893 89.097C112.925 89.0252 113.005 88.9808 113.087 88.9956C113.184 89.0125 113.248 89.1055 113.231 89.2027L113.106 89.885C113.089 89.9822 112.996 90.0456 112.899 90.0287C112.802 90.0118 112.739 89.9188 112.756 89.8217L112.88 89.1393C112.882 89.1245 112.887 89.1097 112.893 89.097Z" fill="white"/>
<path d="M112.282 89.7017C112.313 89.6299 112.394 89.5855 112.476 89.6003C112.573 89.6172 112.636 89.7102 112.619 89.8073L112.495 90.4897C112.478 90.5869 112.385 90.6503 112.288 90.6334C112.191 90.6165 112.128 90.5235 112.145 90.4263L112.269 89.744C112.273 89.7271 112.277 89.7144 112.282 89.7017Z" fill="white"/>
<path d="M133.288 74.1771C133.288 74.1771 136.84 72.261 138.895 73.7424C142.656 76.4519 136.274 81.6621 128.973 84.2071C121.671 86.7521 119.302 86.4039 119.302 86.4039C119.302 86.4039 117.715 85.9671 118.278 83.3968C118.278 83.3968 122.486 81.7972 124.676 80.1217C126.869 78.444 128.361 76.3907 133.288 74.1771Z" fill="#FF993A"/>
<path d="M118.56 84.1443C120.092 83.7771 123.211 82.3442 126.906 80.3163C129.671 78.799 132.857 76.8597 133.326 76.1865C133.579 75.8235 133.642 75.526 133.516 75.3023C133.326 74.9689 132.777 74.9351 132.528 74.9372C132.465 74.9372 132.414 74.9921 132.418 75.0554C132.423 75.1145 132.471 75.1588 132.53 75.1588C132.775 75.1567 133.203 75.1989 133.324 75.412C133.425 75.5893 133.282 75.8615 133.144 76.0578C132.767 76.6001 130.099 78.3094 126.801 80.12C123.961 81.6795 120.291 83.4985 118.51 83.9269L118.56 84.1443Z" fill="#FF7E07"/>
<path d="M118.847 83.055C119.02 84.4055 119.37 85.6337 120.132 86.577C120.132 86.577 119.478 87.0476 118.88 86.7099C118.425 86.4525 117.545 84.3422 117.88 83.2154C118.262 83.0064 118.591 82.9326 118.847 83.055Z" fill="#FF7E07"/>
<path d="M128.116 84.3717C128.116 84.3717 126.665 84.091 126.253 83.593L125.095 85.8826L128.431 87.1741C128.433 87.1762 128.657 84.8782 128.116 84.3717Z" fill="#EA9B7A"/>
<path d="M135.85 91.9649L132.098 81.8906C131.933 81.8652 131.726 81.8969 131.488 81.9665C130.612 82.2219 129.352 82.9984 128.546 83.4521C128.451 83.5049 128.365 83.5534 128.282 83.5956C128.145 83.6674 128.031 83.7244 127.942 83.756C127.242 84.0156 127.533 84.2139 127.533 84.2139C128.913 84.8618 127.902 86.951 128.645 87.4426C128.645 87.4426 128.962 87.6558 129.979 88.1876C130.996 88.7193 131.977 89.9032 132.893 90.8802C134.075 92.1422 134.858 92.3342 135.318 92.2561C135.685 92.1949 135.85 91.9649 135.85 91.9649Z" fill="#006ED3"/>
<path d="M135.846 91.9649L132.094 81.8905C131.929 81.8652 131.722 81.8968 131.484 81.9665L135.316 92.2561C135.681 92.1949 135.846 91.9649 135.846 91.9649Z" fill="#369FFF"/>
<path d="M132.483 82.919L132.372 82.6194C132.142 83.0457 131.722 83.5205 130.96 83.761C129.947 84.0839 129.052 83.7357 128.548 83.4508C128.453 83.5036 128.366 83.5521 128.284 83.5943C128.793 83.9151 129.822 84.3899 131.036 84.0037C131.764 83.7758 132.211 83.3411 132.483 82.919Z" fill="#369FFF"/>
<path d="M130.511 87.7939C130.483 87.72 130.407 87.6693 130.325 87.6799C130.228 87.6904 130.158 87.7791 130.169 87.8763L130.247 88.565C130.258 88.6622 130.346 88.7319 130.443 88.7214C130.54 88.7108 130.61 88.6221 130.6 88.5249L130.521 87.8362C130.519 87.8214 130.515 87.8066 130.511 87.7939Z" fill="white"/>
<path d="M129.756 87.3647C129.729 87.2907 129.653 87.24 129.57 87.2506C129.473 87.2612 129.404 87.3499 129.414 87.4471L129.492 88.1358C129.503 88.2329 129.591 88.3027 129.688 88.2921C129.786 88.2815 129.855 88.1928 129.845 88.0956L129.767 87.4069C129.764 87.3921 129.76 87.3774 129.756 87.3647Z" fill="white"/>
<path d="M131.111 88.2892C131.084 88.2153 131.008 88.1667 130.926 88.1751C130.829 88.1857 130.759 88.2744 130.77 88.3716L130.848 89.0603C130.858 89.1575 130.947 89.2272 131.044 89.2166C131.141 89.2061 131.211 89.1174 131.2 89.0202L131.122 88.3315C131.12 88.3167 131.116 88.3019 131.111 88.2892Z" fill="white"/>
<path d="M131.694 88.7873C131.666 88.7133 131.59 88.6647 131.508 88.6732C131.411 88.6838 131.341 88.7725 131.352 88.8697L131.43 89.5584C131.44 89.6555 131.529 89.7253 131.626 89.7147C131.723 89.7041 131.793 89.6154 131.782 89.5182L131.704 88.8295C131.702 88.8147 131.698 88.7999 131.694 88.7873Z" fill="white"/>
<path d="M132.277 89.3529C132.249 89.279 132.173 89.2304 132.091 89.2389C131.994 89.2494 131.924 89.3382 131.935 89.4353L132.013 90.124C132.023 90.2212 132.112 90.2909 132.209 90.2804C132.306 90.2698 132.376 90.1811 132.365 90.0839L132.287 89.3952C132.285 89.3804 132.281 89.3656 132.277 89.3529Z" fill="white"/>
<path d="M132.831 89.9917C132.804 89.9178 132.728 89.867 132.646 89.8776C132.548 89.8882 132.479 89.9769 132.489 90.0741L132.567 90.7628C132.578 90.86 132.667 90.9297 132.764 90.9191C132.861 90.9086 132.93 90.8198 132.92 90.7226L132.842 90.0339C132.84 90.0192 132.835 90.0065 132.831 89.9917Z" fill="white"/>
<path d="M112.124 72.6198C112.124 72.6198 108.765 70.3851 106.581 71.6723C102.586 74.0253 108.463 79.7989 115.501 83.0023C122.536 86.2057 124.929 86.077 124.929 86.077C124.929 86.077 126.548 85.7878 126.225 83.1753C126.225 83.1753 122.182 81.1959 120.154 79.3262C118.126 77.4587 116.828 75.2767 112.124 72.6198Z" fill="#FF993A"/>
<path d="M118.261 84.2071C118.65 84.3337 119.042 84.4624 119.45 84.5912C121.024 85.0871 122.822 85.6062 124.449 86.005L124.455 86.2372C122.984 85.8784 121.26 85.3931 119.384 84.8022C119.017 84.6861 118.643 84.5658 118.268 84.4413L118.261 84.2071Z" fill="#FF7E07"/>
<path d="M125.868 83.8948C124.376 83.3884 121.4 81.6769 117.908 79.3177C115.295 77.5535 112.299 75.3293 111.896 74.616C111.678 74.232 111.64 73.9302 111.788 73.7192C112.008 73.4047 112.556 73.4195 112.805 73.4448C112.869 73.4512 112.915 73.5103 112.904 73.5736C112.894 73.6305 112.843 73.6706 112.784 73.6664C112.539 73.6432 112.111 73.6453 111.97 73.8458C111.853 74.0125 111.97 74.2974 112.088 74.5063C112.413 75.0803 114.913 77.0259 118.032 79.1341C120.717 80.9468 124.205 83.095 125.939 83.6859L125.868 83.8948Z" fill="#FF7E07"/>
<path d="M125.674 82.7857C125.379 84.1151 124.916 85.3053 124.07 86.1747C124.07 86.1747 124.678 86.7044 125.303 86.4216C125.78 86.2064 126.849 84.1848 126.619 83.0326C126.259 82.7899 125.938 82.6886 125.674 82.7857Z" fill="#FF7E07"/>
<path d="M126.138 72.1265L126.408 75.9819C126.408 75.9819 130.994 75.3278 133.243 74.7538C133.899 74.5871 134.634 74.3718 135.309 74.0131C136.552 73.3526 137.582 72.2025 137.506 69.9614C137.483 69.2418 137.343 68.4103 137.061 67.4438C135.423 61.8453 132.68 57.1437 132.68 57.1437C129.149 58.6546 129.447 61.17 129.447 61.17C130.453 63.8564 132.68 69.5773 132.68 69.5773C131.386 71.1579 126.138 72.1265 126.138 72.1265Z" fill="#369FFF"/>
<path d="M132.673 69.6985C132.694 69.6985 132.717 69.6922 132.736 69.6795C133.127 69.4386 134.188 69.1872 134.199 69.1851C134.264 69.1703 134.304 69.1049 134.287 69.0415C134.272 68.976 134.207 68.938 134.144 68.9527C134.106 68.9612 133.361 69.1365 132.869 69.3478C132.941 69.1872 133.059 69.0161 133.221 68.8302C133.266 68.7795 133.259 68.7056 133.211 68.6612C133.16 68.6168 133.086 68.6232 133.042 68.6718C132.759 68.9929 132.599 69.2844 132.555 69.5612C132.546 69.6076 132.567 69.6541 132.605 69.6795C132.626 69.6922 132.65 69.6985 132.673 69.6985Z" fill="#084FC7"/>
<path d="M135.305 74.012C136.548 73.3515 137.578 72.2014 137.502 69.9603C136.519 70.4752 134.803 71.7245 135.305 74.012Z" fill="#006ED3"/>
<path d="M129.012 71.5325C129.023 71.5325 129.031 71.5304 129.042 71.5283C131.312 70.9416 132.693 69.7177 132.749 69.6649C132.79 69.6291 132.8 69.57 132.777 69.5214C131.156 66.3371 130.133 63.809 129.552 61.5637C129.536 61.5003 129.47 61.4603 129.407 61.4771C129.344 61.494 129.303 61.5594 129.32 61.6227C129.901 63.8659 130.918 66.3835 132.522 69.5446C132.216 69.7979 130.916 70.796 128.983 71.294C128.919 71.3109 128.879 71.3763 128.896 71.4397C128.911 71.4966 128.959 71.5325 129.012 71.5325Z" fill="#084FC7"/>
<path d="M129.918 63.3518C129.944 63.3518 129.971 63.3434 129.992 63.3265C130.045 63.2843 130.053 63.2104 130.011 63.1577L129.169 62.1004C129.127 62.0477 129.053 62.0392 129 62.0814C128.948 62.1236 128.939 62.1975 128.981 62.2502L129.823 63.3075C129.849 63.3349 129.883 63.3518 129.918 63.3518Z" fill="#084FC7"/>
<path d="M125.999 53.6333L121.926 54.2157C119.28 53.9519 118.438 52.8989 118.005 50.6747C117.788 49.5563 117.932 48.5687 118.145 47.8343C118.2 46.9986 118.392 46.2769 118.786 45.8C120.574 43.6454 122.148 43.7298 122.148 43.7298C122.948 43.3626 125.59 43.1115 127.333 45.2281C127.388 45.2745 128.451 46.4014 128.696 48.7649C128.932 51.0187 127.428 53.897 125.999 53.6333Z" fill="#39393B"/>
<path d="M123.723 44.3212C123.723 44.3212 123.299 40.5649 126.633 41.0419C128.811 41.3521 130.16 44.3043 128.167 45.6443C126.175 46.9843 123.723 44.3212 123.723 44.3212Z" fill="#39393B"/>
<path d="M127.834 46.0305C127.851 46.0305 127.868 46.0262 127.885 46.0178C127.935 45.9904 127.954 45.925 127.927 45.8743C127.155 44.471 126.053 43.8506 125.266 43.5762C124.411 43.2808 123.746 43.3167 123.719 43.3167C123.66 43.3209 123.616 43.3694 123.62 43.4285C123.624 43.4876 123.673 43.5319 123.732 43.5277C123.757 43.5256 126.329 43.4074 127.741 45.9756C127.762 46.0094 127.798 46.0305 127.834 46.0305Z" fill="#006ED3"/>
<path d="M125.683 52.7848C125.683 52.7848 128.281 51.3309 127.77 48.3048C127.26 45.2787 125.268 43.4575 122.214 44.3354C122.212 44.3354 122.51 53.0824 125.683 52.7848Z" fill="#39393B"/>
<path d="M118.455 47.2205C118.455 47.2205 118.189 49.8182 118.664 50.1939C119.136 50.5695 119.601 49.5418 119.601 49.5418C119.601 49.5418 118.955 47.2501 118.455 47.2205Z" fill="#39393B"/>
<path d="M119.651 50.4316C119.651 50.4316 118.877 49.7521 118.619 50.5857C118.362 51.4192 118.883 52.9534 119.848 52.5461L119.651 50.4316Z" fill="#D46A43"/>
<path d="M118.698 52.3546C118.803 52.4517 118.921 52.5361 119.05 52.6057C119.537 52.8674 120.173 52.899 120.937 52.4981C120.937 52.4981 121.914 51.2277 120.47 48.9866C120.47 48.9866 119.147 48.6384 118.389 49.4382C118.305 49.5269 118.229 49.6281 118.162 49.7463C118.119 49.8181 118.083 49.8961 118.05 49.9806C117.782 50.6622 118.031 51.749 118.698 52.3546Z" fill="#FF993A"/>
<path d="M118.743 49.1672C118.682 48.8672 118.621 48.4954 118.581 48.0834C118.6 48.0919 118.619 48.0982 118.64 48.0982C118.722 48.1046 118.803 48.0707 118.883 48.0116C118.919 48.3961 118.973 48.7447 119.028 49.0341L118.743 49.1672Z" fill="white"/>
<path d="M118.701 52.3536C118.807 52.4507 118.925 52.5351 119.054 52.6048C118.385 51.2183 118.366 49.9522 118.393 49.4373C118.309 49.5259 118.233 49.6272 118.165 49.7454C118.165 50.3278 118.252 51.2858 118.701 52.3536Z" fill="#FF7E07"/>
<path d="M121.909 54.1777L122.227 56.326C122.227 56.326 123.542 58.0121 126.585 55.2624C126.239 54.3888 125.707 53.264 125.844 52.403C125.844 52.403 125.623 52.6077 125.239 52.8504C125.161 52.901 125.076 52.9538 124.987 53.0065C124.198 53.4877 122.991 54.1018 121.909 54.1777Z" fill="#EA9B7A"/>
<path d="M121.913 54.1777L122.063 55.1822C122.951 54.8403 124.488 54.0996 125.245 52.8483C125.167 52.8989 125.083 52.9517 124.994 53.0044C124.203 53.4877 122.996 54.1018 121.913 54.1777Z" fill="#39393B"/>
<path d="M118.984 50.5247C119.017 50.7463 119.049 50.9552 119.083 51.1536C119.328 52.635 119.551 53.4326 119.963 53.7492C122.046 55.3466 125.717 52.5231 125.836 52.4324C125.838 52.4303 125.838 52.4303 125.838 52.4303C125.85 52.2572 125.859 52.0863 125.863 51.9196C125.912 50.4931 125.736 49.2016 125.412 47.9966C125.287 46.6946 124.339 45.6057 123.059 45.344C121.731 45.0739 120.685 45.7956 120.037 46.1037C119.06 46.5722 118.612 47.9924 118.887 49.879C118.92 50.1048 118.952 50.3221 118.984 50.5247Z" fill="#EA9B7A"/>
<path d="M120.855 52.2526C122.02 52.2526 122.486 51.1372 122.491 51.1245C122.512 51.0696 122.486 51.0083 122.432 50.9872C122.377 50.9661 122.315 50.9914 122.294 51.0464C122.273 51.095 121.786 52.2526 120.515 52.0076C120.458 51.997 120.401 52.0351 120.391 52.0921C120.38 52.1491 120.418 52.2041 120.475 52.2167C120.61 52.2421 120.737 52.2526 120.855 52.2526Z" fill="#39393B"/>
<path d="M121.753 48.2301C121.453 48.1266 121.514 47.6851 121.831 47.6639C122.369 47.628 123.234 47.6428 123.306 48.078C123.411 48.7139 122.407 48.4498 121.772 48.2364C121.765 48.2343 121.759 48.2322 121.753 48.2301Z" fill="#39393B"/>
<path d="M120.165 48.4175C120.397 48.202 120.163 47.8218 119.865 47.9316C119.359 48.1175 118.571 48.4788 118.681 48.9055C118.839 49.5308 119.654 48.8823 120.15 48.4323C120.156 48.426 120.16 48.4217 120.165 48.4175Z" fill="#39393B"/>
<path d="M121.714 52.7723C121.501 52.8251 121.321 52.7849 121.309 52.7807C121.271 52.7723 121.247 52.7342 121.256 52.6962C121.264 52.6582 121.302 52.6349 121.34 52.6434C121.345 52.6434 121.693 52.7216 121.957 52.4892C121.986 52.4638 122.03 52.4659 122.056 52.4955C122.081 52.5251 122.079 52.5694 122.049 52.5948C121.942 52.692 121.824 52.7448 121.714 52.7723Z" fill="#D46A43"/>
<path d="M120.983 51.3248C121.002 51.3164 121.014 51.2995 121.023 51.2805C121.035 51.2404 121.014 51.1961 120.974 51.1835L120.466 51.0167L120.767 50.7108C120.784 50.6939 120.793 50.6707 120.788 50.6475L120.696 49.8055C120.691 49.7633 120.653 49.7316 120.609 49.7379C120.567 49.7422 120.535 49.7801 120.542 49.8223L120.632 50.6263L120.269 50.9935C120.25 51.0125 120.242 51.04 120.248 51.0653C120.255 51.0906 120.274 51.1117 120.299 51.1201L120.926 51.327C120.945 51.3354 120.964 51.3333 120.983 51.3248Z" fill="#39393B"/>
<path d="M122.297 50.5194C122.322 50.6948 122.704 50.7814 123.147 50.7159C123.59 50.6504 123.93 50.4539 123.903 50.2786C123.877 50.1033 123.495 50.0166 123.052 50.0821C122.609 50.1497 122.272 50.3462 122.297 50.5194Z" fill="#D46A43"/>
<g opacity="0.8">
<g opacity="0.8">
<g opacity="0.8">
<g opacity="0.8">
<g opacity="0.8">
<g opacity="0.8">
<g opacity="0.8">
<g opacity="0.8">
<g opacity="0.8">
<g opacity="0.8">
<g opacity="0.8">
<path opacity="0.8" d="M118.987 50.7287C119.02 50.9505 119.052 51.1597 119.086 51.3583C119.491 51.2822 119.788 51.0984 119.763 50.9358C119.74 50.7689 119.398 50.6822 118.987 50.7287Z" fill="#D46A43"/>
</g>
</g>
</g>
</g>
</g>
</g>
</g>
</g>
</g>
</g>
</g>
<path d="M121.873 49.8947C121.909 50.1355 122.046 50.313 122.181 50.294C122.316 50.2749 122.394 50.0637 122.36 49.8229C122.324 49.582 122.187 49.4046 122.052 49.4236C121.917 49.4426 121.837 49.6538 121.873 49.8947Z" fill="#39393B"/>
<path d="M119.488 50.2473C119.524 50.4882 119.661 50.6656 119.796 50.6466C119.931 50.6276 120.009 50.4163 119.976 50.1755C119.94 49.9347 119.803 49.7572 119.667 49.7762C119.532 49.7974 119.454 50.0086 119.488 50.2473Z" fill="#39393B"/>
<path d="M124.921 51.5771C124.936 51.6024 125.36 52.2869 125.848 52.4348C125.85 52.4327 125.85 52.4327 125.85 52.4327C125.862 52.2595 125.871 52.0883 125.875 51.9214C125.858 51.9193 125.39 51.9088 124.921 51.5771Z" fill="#39393B"/>
<path d="M125.11 49.8432C125.11 49.8432 125.879 48.4124 126.731 49.3198C127.434 50.0669 126.674 52.4515 125.381 51.8142L125.11 49.8432Z" fill="#EA9B7A"/>
<path d="M125.474 51.4245C125.525 51.4161 125.561 51.3739 125.558 51.3211C125.52 50.3293 126.286 49.8693 126.318 49.8503C126.365 49.8229 126.381 49.7617 126.354 49.7131C126.327 49.6646 126.265 49.6498 126.217 49.6773C126.181 49.6984 125.314 50.2154 125.358 51.3296C125.36 51.3845 125.406 51.4267 125.461 51.4245C125.466 51.4245 125.47 51.4245 125.474 51.4245Z" fill="#39393B"/>
<path d="M126.305 50.6899C126.335 50.6856 126.36 50.6687 126.377 50.6413C126.404 50.5948 126.39 50.5335 126.341 50.504C126.297 50.4786 125.902 50.2504 125.617 50.3709C125.567 50.392 125.543 50.4511 125.564 50.5018C125.586 50.5525 125.645 50.5758 125.695 50.5547C125.86 50.4849 126.151 50.6223 126.24 50.6751C126.261 50.6877 126.284 50.692 126.305 50.6899Z" fill="#39393B"/>
<path d="M122.743 51.1542C123.494 50.8672 123.872 50.0231 123.585 49.2718C123.298 48.5206 122.453 48.1428 121.702 48.4298C120.951 48.7168 120.573 49.5609 120.86 50.3122C121.147 51.0634 121.991 51.4412 122.743 51.1542ZM121.778 48.6282C122.42 48.3834 123.141 48.7063 123.386 49.3478C123.631 49.9893 123.308 50.711 122.667 50.9558C122.025 51.2006 121.303 50.8777 121.059 50.2362C120.814 49.5947 121.137 48.873 121.778 48.6282Z" fill="white"/>
<path d="M123.525 49.466C123.538 49.466 123.551 49.4618 123.563 49.4555C124.353 49.0942 125.093 49.3689 125.102 49.3731C125.157 49.3942 125.218 49.3667 125.239 49.3118C125.26 49.2569 125.233 49.1956 125.178 49.1745C125.144 49.1618 124.344 48.8639 123.475 49.2632C123.422 49.2886 123.399 49.352 123.422 49.4048C123.443 49.4449 123.483 49.4681 123.525 49.466Z" fill="white"/>
<path d="M119.508 51.5188C120.259 51.2318 120.637 50.3877 120.35 49.6364C120.063 48.8852 119.219 48.5075 118.468 48.7945C117.717 49.0815 117.339 49.9256 117.626 50.6768C117.911 51.4281 118.757 51.8058 119.508 51.5188ZM118.542 48.9928C119.183 48.748 119.905 49.0709 120.15 49.7124C120.395 50.3539 120.072 51.0756 119.43 51.3204C118.789 51.5652 118.067 51.2424 117.822 50.6008C117.577 49.9593 117.9 49.2376 118.542 48.9928Z" fill="white"/>
<path d="M120.921 49.694C120.938 49.6855 120.95 49.6728 120.961 49.6559C120.993 49.6052 120.978 49.5397 120.927 49.508C120.912 49.4996 120.558 49.282 120.189 49.5651C120.142 49.601 120.134 49.6686 120.17 49.7151C120.205 49.7616 120.273 49.77 120.319 49.7341C120.573 49.5397 120.813 49.6876 120.815 49.6876C120.849 49.7109 120.889 49.7109 120.921 49.694Z" fill="white"/>
<path d="M120.127 44.796C119.241 45.1948 118.545 45.9334 118.234 46.8535C118.04 47.4296 117.878 48.1914 118.688 48.0922C120.9 47.8242 122.084 45.5282 122.084 45.5282C122.084 45.5282 122.514 47.6427 124.251 47.3852C125.988 47.1257 125.933 45.8173 124.945 45.0766C124.141 44.471 122.092 43.9096 120.127 44.796Z" fill="#39393B"/>
<path d="M124.19 47.1403C124.19 47.1403 125.177 48.2018 124.823 49.3435C124.468 50.4851 124.445 51.401 124.814 52.015C124.814 52.015 124.909 50.8122 125.35 49.9006C125.711 49.1514 126.049 48.5817 125.787 47.7186C125.608 47.1277 125.175 46.5579 124.19 47.1403Z" fill="#39393B"/>
<path d="M125.801 52.3215C126.567 52.5072 127.16 52.3996 127.599 52.1232C127.669 52.0789 127.734 52.0303 127.797 51.9797C128.717 51.2094 128.785 49.612 128.221 48.8291C128.023 48.5526 127.793 48.3669 127.55 48.2487C127.476 48.2108 127.403 48.1812 127.329 48.158C126.377 47.8457 125.345 48.4176 125.345 48.4176C124.265 51.3846 125.801 52.3215 125.801 52.3215Z" fill="#FF993A"/>
<path d="M123.102 53.6192C125.341 53.1613 126.293 51.5491 126.337 51.471C126.373 51.4098 126.352 51.3296 126.289 51.2937C126.227 51.2579 126.147 51.279 126.111 51.3423C126.096 51.3676 124.934 53.3217 122.22 53.4694C122.148 53.4736 122.093 53.5348 122.098 53.6066C122.102 53.6783 122.163 53.7332 122.235 53.729C122.543 53.7121 122.832 53.6741 123.102 53.6192Z" fill="white"/>
<path d="M121.502 53.6957C121.549 53.9196 121.768 54.0654 121.992 54.0189C122.215 53.9724 122.361 53.7527 122.315 53.5288C122.268 53.3048 122.049 53.1591 121.825 53.2055C121.601 53.252 121.456 53.4696 121.502 53.6957Z" fill="#243434"/>
<path d="M127.604 52.1234C127.674 52.0791 127.739 52.0305 127.803 51.9799C127.094 50.3761 127.334 48.9749 127.558 48.2489C127.484 48.211 127.41 48.1814 127.336 48.1582C127.096 48.9263 126.836 50.4225 127.604 52.1234Z" fill="#FF7E07"/>
<path d="M118.512 46.2525C118.7 45.9001 118.909 45.6659 119.012 45.5498C119.099 45.2987 119.192 45.0623 119.331 44.8429C119.8 44.1 120.54 43.6442 121.536 43.4902C122.61 43.3235 123.543 43.5366 124.307 44.1211C124.546 44.3026 124.757 44.5158 124.946 44.7437C125.208 45.0623 125.426 45.4147 125.603 45.7671C126.219 46.9995 126.367 48.2657 126.369 48.2826L126.662 48.2509C126.649 48.1306 126.318 45.286 124.489 43.8848C123.659 43.2496 122.651 43.0175 121.492 43.1969C120.407 43.3636 119.597 43.8658 119.082 44.6846C118.78 45.1573 118.605 45.6996 118.512 46.2525Z" fill="white"/>
<path d="M129.64 78.7269L130.661 76.7855C130.916 76.3023 130.56 75.7219 130.013 75.7262L113.969 75.8992L114.441 78.3851L129.64 78.7269Z" fill="#39393B"/>
<path d="M114.72 78.1798H129.078C129.424 78.1798 129.676 77.8991 129.635 77.553L128.656 68.6815C128.618 68.3354 128.306 68.0547 127.96 68.0547H113.602C113.256 68.0547 113.005 68.3354 113.045 68.6815L114.024 77.553C114.062 77.8991 114.374 78.1798 114.72 78.1798Z" fill="#39393B"/>
<path d="M129.292 78.5622C129.296 78.5622 129.302 78.5622 129.307 78.5622C129.372 78.5537 129.421 78.4925 129.412 78.4271L128.22 68.9267C128.211 68.8613 128.15 68.8128 128.085 68.8212C128.019 68.8296 127.971 68.8908 127.979 68.9563L129.172 78.4566C129.18 78.5178 129.233 78.5622 129.292 78.5622Z" fill="#564C54"/>
<path d="M122.311 73.2763C122.365 73.9896 121.84 74.6036 121.139 74.648C120.437 74.6923 119.823 74.1521 119.768 73.4388C119.713 72.7255 120.238 72.1114 120.939 72.0671C121.642 72.0228 122.256 72.563 122.311 73.2763Z" fill="#585859"/>
<path d="M114.649 78.9525H129.205C129.526 78.9525 129.771 78.6697 129.729 78.3532L129.589 77.3381H113.967L114.125 78.4946C114.161 78.7583 114.385 78.9525 114.649 78.9525Z" fill="#39393B"/>
</svg>
