<svg width="129" height="170" viewBox="0 0 129 170" fill="none" xmlns="http://www.w3.org/2000/svg">
<path d="M23.521 73.5714H12.4954V50.7143C12.4954 22.8571 36.0167 0 64.6834 0C91.1449 0 113.196 18.9286 116.504 44.2857L105.846 45.7143C103.273 25.7143 85.6321 10.7143 64.6834 10.7143C41.8971 10.7143 23.521 28.5714 23.521 50.7143V73.5714Z" fill="#032A1B"/>
<path d="M111.359 170H17.641C8.08547 170 0 162.5 0 152.857V84.6429C0 75.3571 7.71795 67.5 17.641 67.5H111.359C120.915 67.5 129 75 129 84.6429V152.857C129 162.5 121.282 170 111.359 170ZM18.0085 79.2857C14.7009 79.2857 12.1282 81.7857 12.1282 85V153.214C12.1282 156.429 14.7009 158.929 18.0085 158.929H111.727C115.034 158.929 117.607 156.429 117.607 153.214V85C117.607 81.7857 115.034 79.2857 111.727 79.2857H18.0085Z" fill="#032A1B"/>
<path d="M76.4445 101.785C76.4445 108.213 71.2992 113.213 64.6838 113.213C58.0684 113.213 52.9231 108.213 52.9231 101.785C52.9231 95.3563 58.0684 90.3563 64.6838 90.3563C71.2992 90.3563 76.4445 95.7134 76.4445 101.785Z" fill="#032A1B"/>
<path d="M67.6235 101.786H61.7431L55.8628 136.072H73.5038L67.6235 101.786Z" fill="#032A1B"/>
</svg>
