<svg width="98" height="90" viewBox="0 0 98 90" fill="none" xmlns="http://www.w3.org/2000/svg">
<path d="M95.5 45C95.5 67.9748 74.9133 87 49 87C23.0867 87 2.5 67.9748 2.5 45C2.5 22.0252 23.0867 3 49 3C74.9133 3 95.5 22.0252 95.5 45Z" stroke="#0FD186" stroke-width="5"/>
<path d="M51.3601 15.6117C51.428 12.6441 53.8977 10.2492 56.8384 10.6413C63.1252 11.4798 69.1351 13.5878 74.3884 16.8275C81.118 20.9777 86.3038 26.7985 89.2901 33.5539C92.2764 40.3093 92.9291 47.6958 91.1655 54.7795C89.402 61.8632 85.3014 68.3258 79.3825 73.3501C73.4635 78.3744 65.9919 81.7348 57.9126 83.0063C49.8332 84.2778 41.509 83.4032 33.9925 80.4933C26.476 77.5834 20.1049 72.7687 15.6847 66.6582C12.5044 62.2616 10.4369 57.3362 9.58917 52.218C9.04092 48.908 11.8821 46.2127 15.2398 46.2724C18.5975 46.3322 21.1808 49.1463 21.9807 52.4035C22.7152 55.3942 24.047 58.2622 25.9316 60.8675C29.0561 65.187 33.5598 68.5904 38.8731 70.6474C44.1864 72.7044 50.0707 73.3226 55.7819 72.4238C61.493 71.525 66.7746 69.1496 70.9586 65.598C75.1427 62.0463 78.0413 57.478 79.2879 52.4707C80.5346 47.4633 80.0732 42.2418 77.9622 37.4665C75.8513 32.6912 72.1855 28.5766 67.4284 25.6429C64.1504 23.6214 60.4557 22.2232 56.5775 21.5154C53.6597 20.9829 51.2921 18.5793 51.3601 15.6117Z" fill="#FFCA22"/>
</svg>
