<svg width="200" height="116" viewBox="0 0 200 116" fill="none" xmlns="http://www.w3.org/2000/svg">
<g filter="url(#filter0_d_1061_1701)">
<ellipse cx="120" cy="58" rx="70" ry="67.5" fill="#0FD186"/>
</g>
<path d="M89.7185 37.084C97.0321 17.7076 118.803 7.56007 138.345 14.4188C157.887 21.2774 167.8 42.5451 160.486 61.9215C156.754 71.8108 149.25 79.2989 140.208 83.3439C138.577 84.0734 137.205 84.9444 136.17 86.0249L127.771 94.792C126.901 95.7008 125.574 96.0219 124.396 95.6086L94.9095 85.2596C93.732 84.8463 92.9295 83.778 92.8684 82.5421L92.2788 70.6203C92.2061 69.1511 91.7356 67.6334 90.9727 66.0637C86.7426 57.3607 85.9858 46.9733 89.7185 37.084Z" fill="#00355D"/>
<path d="M89.7185 37.084C97.0321 17.7076 118.803 7.56007 138.345 14.4188C157.887 21.2774 167.8 42.5451 160.486 61.9215C156.754 71.8108 149.25 79.2989 140.208 83.3439C138.577 84.0734 137.205 84.9444 136.17 86.0249L127.771 94.792C126.901 95.7008 125.574 96.0219 124.396 95.6086L94.9095 85.2596C93.732 84.8463 92.9295 83.778 92.8684 82.5421L92.2788 70.6203C92.2061 69.1511 91.7356 67.6334 90.9727 66.0637C86.7426 57.3607 85.9858 46.9733 89.7185 37.084Z" fill="black" fill-opacity="0.2"/>
<path d="M89.7185 37.084C97.0321 17.7076 118.803 7.56007 138.345 14.4188C157.887 21.2774 167.8 42.5451 160.486 61.9215C156.754 71.8108 149.25 79.2989 140.208 83.3439C138.577 84.0734 137.205 84.9444 136.17 86.0249L127.771 94.792C126.901 95.7008 125.574 96.0219 124.396 95.6086L94.9095 85.2596C93.732 84.8463 92.9295 83.778 92.8684 82.5421L92.2788 70.6203C92.2061 69.1511 91.7356 67.6334 90.9727 66.0637C86.7426 57.3607 85.9858 46.9733 89.7185 37.084Z" fill="black" fill-opacity="0.2"/>
<path d="M88.6503 92.9957C89.2597 91.381 91.074 90.5354 92.7025 91.1069L122.189 101.456C123.818 102.027 124.644 103.8 124.034 105.414C123.425 107.029 121.611 107.875 119.982 107.303L117.676 109.455C115.93 111.086 113.415 111.62 111.182 110.836L94.8817 105.116C92.648 104.332 91.0783 102.364 90.827 100.032L90.4954 96.9543C88.8669 96.3827 88.0408 94.6104 88.6503 92.9957Z" fill="#00355D"/>
<path d="M88.6503 92.9957C89.2597 91.381 91.074 90.5354 92.7025 91.1069L122.189 101.456C123.818 102.027 124.644 103.8 124.034 105.414C123.425 107.029 121.611 107.875 119.982 107.303L117.676 109.455C115.93 111.086 113.415 111.62 111.182 110.836L94.8817 105.116C92.648 104.332 91.0783 102.364 90.827 100.032L90.4954 96.9543C88.8669 96.3827 88.0408 94.6104 88.6503 92.9957Z" fill="black" fill-opacity="0.2"/>
<path d="M88.6503 92.9957C89.2597 91.381 91.074 90.5354 92.7025 91.1069L122.189 101.456C123.818 102.027 124.644 103.8 124.034 105.414C123.425 107.029 121.611 107.875 119.982 107.303L117.676 109.455C115.93 111.086 113.415 111.62 111.182 110.836L94.8817 105.116C92.648 104.332 91.0783 102.364 90.827 100.032L90.4954 96.9543C88.8669 96.3827 88.0408 94.6104 88.6503 92.9957Z" fill="black" fill-opacity="0.2"/>
<defs>
<filter id="filter0_d_1061_1701" x="0" y="-35.5" width="200" height="195" filterUnits="userSpaceOnUse" color-interpolation-filters="sRGB">
<feFlood flood-opacity="0" result="BackgroundImageFix"/>
<feColorMatrix in="SourceAlpha" type="matrix" values="0 0 0 0 0 0 0 0 0 0 0 0 0 0 0 0 0 0 127 0" result="hardAlpha"/>
<feOffset dx="-20" dy="4"/>
<feGaussianBlur stdDeviation="15"/>
<feComposite in2="hardAlpha" operator="out"/>
<feColorMatrix type="matrix" values="0 0 0 0 0.0392157 0 0 0 0 0.546405 0 0 0 0 0.350327 0 0 0 0.25 0"/>
<feBlend mode="normal" in2="BackgroundImageFix" result="effect1_dropShadow_1061_1701"/>
<feBlend mode="normal" in="SourceGraphic" in2="effect1_dropShadow_1061_1701" result="shape"/>
</filter>
</defs>
</svg>
