<svg width="15" height="15" viewBox="0 0 15 15" fill="none" xmlns="http://www.w3.org/2000/svg">
<path d="M10.625 1.25C10.2812 1.25 10 1.53125 10 1.875V2.5H5V1.875C5 1.53125 4.71875 1.25 4.375 1.25C4.03125 1.25 3.75 1.53125 3.75 1.875V2.5H3.125C2.43125 2.5 1.88125 3.0625 1.88125 3.75L1.875 12.5C1.875 12.8315 2.0067 13.1495 2.24112 13.3839C2.47554 13.6183 2.79348 13.75 3.125 13.75H11.875C12.5625 13.75 13.125 13.1875 13.125 12.5V3.75C13.125 3.0625 12.5625 2.5 11.875 2.5H11.25V1.875C11.25 1.53125 10.9688 1.25 10.625 1.25ZM11.875 12.5H3.125V6.25H11.875V12.5ZM6.875 8.125C6.875 7.78125 7.15625 7.5 7.5 7.5C7.84375 7.5 8.125 7.78125 8.125 8.125C8.125 8.46875 7.84375 8.75 7.5 8.75C7.15625 8.75 6.875 8.46875 6.875 8.125ZM4.375 8.125C4.375 7.78125 4.65625 7.5 5 7.5C5.34375 7.5 5.625 7.78125 5.625 8.125C5.625 8.46875 5.34375 8.75 5 8.75C4.65625 8.75 4.375 8.46875 4.375 8.125ZM9.375 8.125C9.375 7.78125 9.65625 7.5 10 7.5C10.3438 7.5 10.625 7.78125 10.625 8.125C10.625 8.46875 10.3438 8.75 10 8.75C9.65625 8.75 9.375 8.46875 9.375 8.125ZM6.875 10.625C6.875 10.2812 7.15625 10 7.5 10C7.84375 10 8.125 10.2812 8.125 10.625C8.125 10.9688 7.84375 11.25 7.5 11.25C7.15625 11.25 6.875 10.9688 6.875 10.625ZM4.375 10.625C4.375 10.2812 4.65625 10 5 10C5.34375 10 5.625 10.2812 5.625 10.625C5.625 10.9688 5.34375 11.25 5 11.25C4.65625 11.25 4.375 10.9688 4.375 10.625ZM9.375 10.625C9.375 10.2812 9.65625 10 10 10C10.3438 10 10.625 10.2812 10.625 10.625C10.625 10.9688 10.3438 11.25 10 11.25C9.65625 11.25 9.375 10.9688 9.375 10.625Z" fill="#9BA3B1"/>
</svg>
