<svg width="30" height="30" viewBox="0 0 30 30" fill="none" xmlns="http://www.w3.org/2000/svg">
<path d="M15 30C23.2843 30 30 23.2843 30 15C30 6.71573 23.2843 0 15 0C6.71573 0 0 6.71573 0 15C0 23.2843 6.71573 30 15 30ZM16.7451 12.3523L14.8664 21.1743C14.7346 21.8115 14.9213 22.1741 15.4377 22.1741C15.8002 22.1741 16.3496 22.0422 16.7231 21.7126L16.5583 22.4927C16.02 23.1409 14.8334 23.6133 13.8117 23.6133C12.4934 23.6133 11.9331 22.8223 12.2956 21.1414L13.6799 14.6375C13.8007 14.0881 13.6909 13.8904 13.1416 13.7585L12.2956 13.6047L12.4494 12.8906L16.7451 12.3523ZM15 10.3125C13.9645 10.3125 13.125 9.47303 13.125 8.4375C13.125 7.40197 13.9645 6.5625 15 6.5625C16.0355 6.5625 16.875 7.40197 16.875 8.4375C16.875 9.47303 16.0355 10.3125 15 10.3125Z" fill="#737373"/>
</svg>
