<svg width="180" height="180" viewBox="0 0 180 180" fill="none" xmlns="http://www.w3.org/2000/svg">
<path d="M84.8625 75.5812C82.4175 75.5492 79.9901 75.9991 77.7189 76.9052C75.4477 77.8113 73.3773 79.1559 71.6257 80.8622C68.0883 84.3082 66.0647 89.0182 66.0001 93.9562C65.9354 98.8942 67.835 103.656 71.281 107.193C74.727 110.73 79.437 112.754 84.3751 112.819H85.3501C90.2881 112.754 94.9981 110.73 98.4441 107.193C101.89 103.656 103.79 98.8942 103.725 93.9562C103.66 89.0182 101.637 84.3082 98.0994 80.8622C94.562 77.4162 89.8005 75.5166 84.8625 75.5812ZM99.6188 92.3437H93.9938C93.9111 88.3716 93.0111 84.4591 91.3501 80.85C93.5681 81.9369 95.4834 83.5547 96.9259 85.5598C98.3684 87.5649 99.2934 89.8952 99.6188 92.3437ZM90.2438 92.3437H79.4438C79.8375 84.3375 82.7813 79.3312 84.8625 79.3312C86.9438 79.3312 89.8876 84.375 90.2813 92.3437H90.2438ZM78.2626 80.8687C76.6195 84.4765 75.7264 88.3804 75.6376 92.3437H70.0126C70.3427 89.8967 71.2719 87.569 72.7176 85.5672C74.1634 83.5654 76.0809 81.9515 78.3 80.8687H78.2626ZM70.0688 96.0937H75.6938C75.7826 100.051 76.6757 103.949 78.3188 107.55C76.11 106.467 74.2039 104.855 72.7708 102.855C71.3377 100.856 70.4222 98.5331 70.1063 96.0937H70.0688ZM79.4438 96.0937H90.2813C89.8876 104.081 86.9438 109.087 84.8625 109.087C82.7813 109.087 79.8375 104.081 79.4438 96.0937ZM91.4063 107.569C93.0554 103.962 93.9548 100.058 94.05 96.0937H99.675C99.358 98.5426 98.4361 100.874 96.9925 102.877C95.5489 104.881 93.629 106.493 91.4063 107.569ZM40.1625 49.8937L43.7813 57.1125C43.9345 57.4252 44.1718 57.6891 44.4665 57.8745C44.7613 58.06 45.1018 58.1597 45.45 58.1625C45.7713 58.1647 46.0877 58.0844 46.3689 57.9292C46.6502 57.7741 46.8868 57.5492 47.0562 57.2763C47.2256 57.0034 47.3221 56.6916 47.3363 56.3707C47.3505 56.0498 47.2821 55.7306 47.1375 55.4437L34.7625 30.7125C34.3201 29.8503 33.6484 29.1269 32.8214 28.6218C31.9944 28.1166 31.0441 27.8494 30.075 27.8494C29.106 27.8494 28.1557 28.1166 27.3287 28.6218C26.5017 29.1269 25.83 29.8503 25.3875 30.7125L12.975 55.4437C12.8564 55.665 12.7834 55.9079 12.7603 56.1579C12.7373 56.4079 12.7647 56.6601 12.841 56.8993C12.9173 57.1385 13.0408 57.36 13.2043 57.5506C13.3677 57.7412 13.5678 57.897 13.7927 58.0088C14.0175 58.1206 14.2625 58.1861 14.5131 58.2014C14.7638 58.2167 15.0149 58.1815 15.2517 58.0979C15.4884 58.0143 15.706 57.884 15.8915 57.7147C16.0769 57.5455 16.2265 57.3407 16.3313 57.1125L19.9313 49.8937H40.1625ZM28.6875 32.4C28.8135 32.1472 29.0074 31.9345 29.2475 31.7859C29.4877 31.6373 29.7645 31.5585 30.0469 31.5585C30.3293 31.5585 30.6062 31.6373 30.8463 31.7859C31.0864 31.9345 31.2804 32.1472 31.4063 32.4L38.2875 46.1437H21.8063L28.6875 32.4Z" fill="#032A1B"/>
<path d="M168.9 107.494H130.669V69.9938C130.669 67.0698 129.507 64.2655 127.44 62.1979C125.372 60.1303 122.568 58.9688 119.644 58.9688H60.0938V22.6688C60.0888 20.0347 59.0402 17.5099 57.1777 15.6474C55.3151 13.7848 52.7903 12.7362 50.1562 12.7313H9.95625C7.31893 12.7313 4.78936 13.7776 2.92274 15.6407C1.05612 17.5039 0.0049667 20.0315 0 22.6688L0 64.1813C0.0049667 66.8186 1.05612 69.3462 2.92274 71.2093C4.78936 73.0724 7.31893 74.1188 9.95625 74.1188H39.0563V141.281C39.0541 141.654 39.1629 142.018 39.3688 142.329C39.5746 142.639 39.8683 142.881 40.2122 143.024C40.5562 143.167 40.9349 143.204 41.3 143.131C41.6652 143.057 42.0002 142.877 42.2625 142.613L56.8688 128.006H112.331V160.087C112.331 163.012 113.493 165.816 115.56 167.883C117.628 169.951 120.432 171.113 123.356 171.113H168.9C170.354 171.122 171.796 170.845 173.142 170.295C174.488 169.745 175.713 168.935 176.744 167.91C177.776 166.885 178.595 165.667 179.154 164.324C179.712 162.981 180 161.542 180 160.087V118.519C180 117.065 179.712 115.625 179.154 114.282C178.595 112.94 177.776 111.721 176.744 110.696C175.713 109.672 174.488 108.861 173.142 108.311C171.796 107.762 170.354 107.484 168.9 107.494ZM9.95625 70.3688C8.31349 70.3688 6.73774 69.7175 5.57438 68.5576C4.41102 67.3978 3.75496 65.824 3.75 64.1813V22.6688C3.75496 21.026 4.41102 19.4522 5.57438 18.2924C6.73774 17.1326 8.31349 16.4813 9.95625 16.4813H50.1562C51.7973 16.4813 53.3711 17.1332 54.5315 18.2935C55.6919 19.4539 56.3438 21.0277 56.3438 22.6688V58.9313H50.0812C48.598 58.9302 47.1299 59.2285 45.7647 59.8081C44.3994 60.3878 43.1652 61.237 42.1359 62.3049C41.1065 63.3727 40.3032 64.6373 39.7741 66.0229C39.2449 67.4085 39.0008 68.8866 39.0563 70.3688H9.95625ZM56.1 124.256C55.8532 124.255 55.6086 124.302 55.3802 124.395C55.1517 124.489 54.9439 124.626 54.7687 124.8L42.8063 136.763V70.3688C42.7528 69.3799 42.9013 68.3905 43.2426 67.4609C43.584 66.5313 44.111 65.6809 44.7917 64.9616C45.4724 64.2424 46.2924 63.6692 47.2018 63.2772C48.1112 62.8851 49.0909 62.6824 50.0812 62.6813H119.644C120.599 62.6813 121.545 62.8694 122.428 63.235C123.31 63.6006 124.112 64.1365 124.788 64.8121C125.463 65.4876 125.999 66.2896 126.365 67.1722C126.731 68.0549 126.919 69.0009 126.919 69.9563V104.288L115.519 92.8875C115.256 92.6295 114.922 92.4548 114.56 92.3852C114.198 92.3156 113.824 92.3543 113.484 92.4963C113.144 92.6384 112.853 92.8775 112.648 93.1839C112.443 93.4902 112.333 93.8502 112.331 94.2188V124.219L56.1 124.256ZM176.25 160.087C176.25 162.017 175.484 163.867 174.119 165.232C172.755 166.596 170.904 167.363 168.975 167.363H123.356C121.427 167.363 119.576 166.596 118.212 165.232C116.848 163.867 116.081 162.017 116.081 160.087V98.7375L128.025 110.625C128.85 111.413 125.55 111.169 168.9 111.169C169.868 111.159 170.828 111.342 171.725 111.708C172.621 112.074 173.435 112.615 174.12 113.299C174.804 113.984 175.345 114.798 175.711 115.694C176.077 116.59 176.26 117.551 176.25 118.519V160.087Z" fill="#032A1B"/>
<path d="M162.544 123.844H146.25V118.219C146.25 117.721 146.052 117.245 145.701 116.893C145.349 116.541 144.872 116.344 144.375 116.344C143.878 116.344 143.401 116.541 143.049 116.893C142.698 117.245 142.5 117.721 142.5 118.219V123.844H129.713C129.215 123.844 128.738 124.041 128.387 124.393C128.035 124.745 127.838 125.221 127.838 125.719C127.838 126.216 128.035 126.693 128.387 127.045C128.738 127.396 129.215 127.594 129.713 127.594H151.706C151.437 133.812 149.798 139.895 146.906 145.406C144.011 142.876 141.515 139.924 139.5 136.65C139.403 136.395 139.251 136.165 139.056 135.975C138.86 135.785 138.626 135.64 138.369 135.55C138.111 135.46 137.838 135.427 137.566 135.453C137.295 135.48 137.033 135.565 136.798 135.703C136.563 135.842 136.361 136.029 136.206 136.254C136.051 136.478 135.947 136.733 135.901 137.002C135.855 137.27 135.867 137.546 135.939 137.809C136.01 138.072 136.137 138.316 136.312 138.525C138.65 142.34 141.58 145.758 144.994 148.65C143.038 151.698 140.701 154.483 138.038 156.938C137.673 157.274 137.456 157.741 137.435 158.236C137.414 158.732 137.59 159.215 137.925 159.581C138.261 159.946 138.728 160.162 139.224 160.183C139.719 160.205 140.203 160.028 140.569 159.694C143.417 157.1 145.936 154.165 148.069 150.956C150.08 152.391 152.213 153.646 154.444 154.706C154.89 154.885 155.388 154.885 155.835 154.707C156.281 154.529 156.643 154.187 156.844 153.75C157.055 153.3 157.079 152.784 156.91 152.317C156.741 151.849 156.394 151.468 155.944 151.256C153.817 150.27 151.789 149.084 149.888 147.713C153.287 141.502 155.212 134.592 155.513 127.519H162.581C163.079 127.519 163.555 127.321 163.907 126.97C164.259 126.618 164.456 126.141 164.456 125.644C164.456 125.146 164.259 124.67 163.907 124.318C163.555 123.966 163.079 123.769 162.581 123.769L162.544 123.844ZM57.0938 151.988C57.0248 151.751 56.91 151.531 56.7558 151.339C56.6017 151.147 56.4112 150.987 56.1953 150.868C55.9794 150.75 55.7423 150.675 55.4976 150.649C55.2528 150.622 55.0051 150.644 54.7688 150.713C54.5324 150.781 54.3119 150.896 54.1199 151.05C53.9279 151.205 53.7681 151.395 53.6497 151.611C53.5313 151.827 53.4566 152.064 53.4299 152.309C53.4031 152.553 53.4248 152.801 53.4938 153.038L55.3688 159.244C42.8299 153.631 32.1902 144.499 24.7413 132.956C17.2923 121.413 13.3546 107.956 13.4063 94.2188C13.4063 93.7215 13.2087 93.2446 12.8571 92.8929C12.5054 92.5413 12.0285 92.3438 11.5313 92.3438C11.034 92.3438 10.5571 92.5413 10.2054 92.8929C9.8538 93.2446 9.65626 93.7215 9.65626 94.2188C9.60443 108.488 13.6376 122.474 21.2793 134.525C28.9211 146.576 39.8521 156.187 52.7813 162.225L47.7375 163.688C47.4913 163.722 47.2542 163.805 47.04 163.931C46.8257 164.057 46.6383 164.224 46.4886 164.422C46.3388 164.621 46.2297 164.847 46.1673 165.088C46.1049 165.328 46.0905 165.579 46.125 165.825C46.1595 166.071 46.2421 166.308 46.3682 166.523C46.4943 166.737 46.6613 166.924 46.8598 167.074C47.0583 167.224 47.2843 167.333 47.525 167.395C47.7657 167.458 48.0163 167.472 48.2625 167.438C48.6375 167.438 47.85 167.625 58.8375 164.438C59.2739 164.305 59.6472 164.019 59.8875 163.631C60.4125 162.581 60.225 162.713 57.0938 151.988ZM110.306 35.1C110.509 35.5274 110.867 35.8623 111.306 36.0373C111.746 36.2124 112.235 36.2147 112.677 36.0439C113.118 35.8731 113.478 35.5417 113.686 35.1163C113.893 34.6908 113.931 34.2028 113.794 33.75L111.506 27.9563C124.118 32.9612 135.032 41.4759 142.954 52.4919C150.876 63.5078 155.475 76.5635 156.206 90.1125C156.221 90.3587 156.284 90.5997 156.392 90.8215C156.5 91.0433 156.65 91.2417 156.835 91.4054C157.02 91.5691 157.235 91.6948 157.468 91.7754C157.701 91.8559 157.948 91.8898 158.194 91.875C158.44 91.8602 158.681 91.7971 158.903 91.6892C159.125 91.5814 159.323 91.4309 159.487 91.2463C159.65 91.0617 159.776 90.8468 159.857 90.6136C159.937 90.3805 159.971 90.1337 159.956 89.8875C159.197 75.7123 154.417 62.0465 146.175 50.4881C137.934 38.9298 126.572 29.9569 113.419 24.6188L118.631 22.5C118.86 22.4089 119.069 22.2736 119.246 22.1018C119.422 21.93 119.564 21.7251 119.661 21.4987C119.759 21.2724 119.811 21.0291 119.814 20.7826C119.817 20.5362 119.772 20.2915 119.681 20.0625C119.59 19.8335 119.455 19.6247 119.283 19.448C119.111 19.2713 118.906 19.1302 118.68 19.0327C118.454 18.9352 118.21 18.8832 117.964 18.8798C117.717 18.8763 117.473 18.9214 117.244 19.0125C107.363 22.9313 106.875 22.8938 106.463 23.9438C106.05 24.9938 106.331 25.05 110.306 35.1Z" fill="#032A1B"/>
</svg>
