<svg width="16" height="21" viewBox="0 0 16 21" fill="none" xmlns="http://www.w3.org/2000/svg">
<path d="M5.86803 19.5068H10.132L9.95106 19.8686C9.90872 19.9533 9.82215 20.0068 9.72746 20.0068H6.27254C6.17785 20.0068 6.09128 19.9533 6.04894 19.8686L5.86803 19.5068ZM12.5222 13.1759L13.218 13.8941L12.5222 13.1759C12.2089 13.4794 11.9192 13.8404 11.7332 14.2721L10.8782 16.2568H5.12178L4.26682 14.2721C4.08085 13.8404 3.79115 13.4794 3.47784 13.1759L2.81044 13.8648L3.47784 13.1759C2.25765 11.9938 1.5 10.3391 1.5 8.50684C1.5 4.91699 4.41015 2.00684 8 2.00684C11.5899 2.00684 14.5 4.91699 14.5 8.50684C14.5 10.3391 13.7424 11.9938 12.5222 13.1759Z" fill="#FFCA22"/>
<path d="M5.86803 19.5068H10.132L9.95106 19.8686C9.90872 19.9533 9.82215 20.0068 9.72746 20.0068H6.27254C6.17785 20.0068 6.09128 19.9533 6.04894 19.8686L5.86803 19.5068ZM12.5222 13.1759L13.218 13.8941L12.5222 13.1759C12.2089 13.4794 11.9192 13.8404 11.7332 14.2721L10.8782 16.2568H5.12178L4.26682 14.2721C4.08085 13.8404 3.79115 13.4794 3.47784 13.1759L2.81044 13.8648L3.47784 13.1759C2.25765 11.9938 1.5 10.3391 1.5 8.50684C1.5 4.91699 4.41015 2.00684 8 2.00684C11.5899 2.00684 14.5 4.91699 14.5 8.50684C14.5 10.3391 13.7424 11.9938 12.5222 13.1759Z" stroke="#00355D" stroke-width="2"/>
<path d="M5.86803 19.5068H10.132L9.95106 19.8686C9.90872 19.9533 9.82215 20.0068 9.72746 20.0068H6.27254C6.17785 20.0068 6.09128 19.9533 6.04894 19.8686L5.86803 19.5068ZM12.5222 13.1759L13.218 13.8941L12.5222 13.1759C12.2089 13.4794 11.9192 13.8404 11.7332 14.2721L10.8782 16.2568H5.12178L4.26682 14.2721C4.08085 13.8404 3.79115 13.4794 3.47784 13.1759L2.81044 13.8648L3.47784 13.1759C2.25765 11.9938 1.5 10.3391 1.5 8.50684C1.5 4.91699 4.41015 2.00684 8 2.00684C11.5899 2.00684 14.5 4.91699 14.5 8.50684C14.5 10.3391 13.7424 11.9938 12.5222 13.1759Z" stroke="black" stroke-opacity="0.2" stroke-width="2"/>
<path d="M5.86803 19.5068H10.132L9.95106 19.8686C9.90872 19.9533 9.82215 20.0068 9.72746 20.0068H6.27254C6.17785 20.0068 6.09128 19.9533 6.04894 19.8686L5.86803 19.5068ZM12.5222 13.1759L13.218 13.8941L12.5222 13.1759C12.2089 13.4794 11.9192 13.8404 11.7332 14.2721L10.8782 16.2568H5.12178L4.26682 14.2721C4.08085 13.8404 3.79115 13.4794 3.47784 13.1759L2.81044 13.8648L3.47784 13.1759C2.25765 11.9938 1.5 10.3391 1.5 8.50684C1.5 4.91699 4.41015 2.00684 8 2.00684C11.5899 2.00684 14.5 4.91699 14.5 8.50684C14.5 10.3391 13.7424 11.9938 12.5222 13.1759Z" stroke="black" stroke-opacity="0.2" stroke-width="2"/>
</svg>
