<svg width="25" height="24" viewBox="0 0 25 24" fill="none" xmlns="http://www.w3.org/2000/svg">
<path d="M12.8172 3.07036C12.6161 2.97655 12.3839 2.97655 12.1828 3.07036L0.932838 8.32036C0.661871 8.44681 0.491907 8.72214 0.500297 9.02104C0.508686 9.31994 0.693826 9.5853 0.971459 9.69636L12.2215 14.1964C12.4003 14.2679 12.5997 14.2679 12.7785 14.1964L21.5 10.7078V19.5C20.6716 19.5 20 20.1716 20 21V24H24.5V21C24.5 20.1716 23.8284 19.5 23 19.5V10.1078L24.0285 9.69636C24.3062 9.5853 24.4913 9.31994 24.4997 9.02104C24.5081 8.72214 24.3381 8.44681 24.0672 8.32036L12.8172 3.07036Z" fill="black"/>
<path d="M6.76334 13.5478C6.56823 13.4746 6.35148 13.4859 6.16503 13.579C5.97859 13.672 5.83928 13.8385 5.78048 14.0384L5.03048 16.5884C4.92133 16.9595 5.11231 17.3527 5.47146 17.4964L12.2215 20.1964C12.4003 20.2679 12.5997 20.2679 12.7785 20.1964L19.5285 17.4964C19.8877 17.3527 20.0787 16.9595 19.9695 16.5884L19.2195 14.0384C19.1607 13.8385 19.0214 13.672 18.835 13.579C18.6485 13.4859 18.4318 13.4746 18.2367 13.5478L12.5 15.699L6.76334 13.5478Z" fill="black"/>
</svg>
