<svg width="21" height="21" viewBox="0 0 21 21" fill="none" xmlns="http://www.w3.org/2000/svg">
<path d="M2.16667 20.5C2.16667 20.5 0.5 20.5 0.5 18.8333C0.5 17.1667 2.16667 12.1667 10.5 12.1667C18.8333 12.1667 20.5 17.1667 20.5 18.8333C20.5 20.5 18.8333 20.5 18.8333 20.5H2.16667Z" fill="#00355D"/>
<path d="M2.16667 20.5C2.16667 20.5 0.5 20.5 0.5 18.8333C0.5 17.1667 2.16667 12.1667 10.5 12.1667C18.8333 12.1667 20.5 17.1667 20.5 18.8333C20.5 20.5 18.8333 20.5 18.8333 20.5H2.16667Z" fill="black" fill-opacity="0.2"/>
<path d="M2.16667 20.5C2.16667 20.5 0.5 20.5 0.5 18.8333C0.5 17.1667 2.16667 12.1667 10.5 12.1667C18.8333 12.1667 20.5 17.1667 20.5 18.8333C20.5 20.5 18.8333 20.5 18.8333 20.5H2.16667Z" fill="black" fill-opacity="0.2"/>
<path d="M10.5 10.5C13.2614 10.5 15.5 8.26142 15.5 5.5C15.5 2.73858 13.2614 0.5 10.5 0.5C7.73858 0.5 5.5 2.73858 5.5 5.5C5.5 8.26142 7.73858 10.5 10.5 10.5Z" fill="#00355D"/>
<path d="M10.5 10.5C13.2614 10.5 15.5 8.26142 15.5 5.5C15.5 2.73858 13.2614 0.5 10.5 0.5C7.73858 0.5 5.5 2.73858 5.5 5.5C5.5 8.26142 7.73858 10.5 10.5 10.5Z" fill="black" fill-opacity="0.2"/>
<path d="M10.5 10.5C13.2614 10.5 15.5 8.26142 15.5 5.5C15.5 2.73858 13.2614 0.5 10.5 0.5C7.73858 0.5 5.5 2.73858 5.5 5.5C5.5 8.26142 7.73858 10.5 10.5 10.5Z" fill="black" fill-opacity="0.2"/>
</svg>
