<svg width="16" height="17" viewBox="0 0 16 17" fill="none" xmlns="http://www.w3.org/2000/svg">
<path d="M9.82861 1.22182C9.96122 1.22182 10.0884 1.2745 10.1822 1.36827L15.1319 6.31802C15.3272 6.51328 15.3272 6.82986 15.1319 7.02513C14.6515 7.50552 14.0599 7.61351 13.6293 7.61351C13.4519 7.61351 13.2938 7.5955 13.1686 7.57425L10.035 10.7078C10.0419 10.7357 10.049 10.7652 10.0562 10.7963C10.1101 11.0298 10.1706 11.3555 10.1949 11.7206C10.2418 12.4232 10.1632 13.408 9.47505 14.0962C9.27979 14.2915 8.96321 14.2915 8.76795 14.0962L5.93952 11.2678L2.75754 14.4497C2.56228 14.645 1.53859 15.3521 1.34333 15.1569C1.14806 14.9616 1.85517 13.9379 2.05043 13.7426L5.23241 10.5607L2.40399 7.73223C2.20872 7.53697 2.20872 7.22039 2.40399 7.02513C3.09216 6.33696 4.07702 6.25843 4.77954 6.30526C5.14472 6.32961 5.4704 6.39013 5.70392 6.44402C5.73497 6.45118 5.7645 6.45826 5.79239 6.46515L8.92593 3.33161C8.90468 3.20637 8.88667 3.04826 8.88667 2.87087C8.88667 2.44025 8.99466 1.84866 9.47505 1.36827C9.56882 1.2745 9.696 1.22182 9.82861 1.22182Z" fill="#FF7039"/>
</svg>
