<svg width="17" height="16" viewBox="0 0 17 16" fill="none" xmlns="http://www.w3.org/2000/svg">
<path d="M10.3286 0.721802C10.4612 0.721802 10.5884 0.77448 10.6822 0.868248L15.6319 5.818C15.8272 6.01326 15.8272 6.32984 15.6319 6.5251C15.1515 7.0055 14.5599 7.11349 14.1293 7.11349C13.9519 7.11349 13.7938 7.09548 13.6686 7.07423L10.535 10.2078C10.5419 10.2357 10.549 10.2652 10.5562 10.2962C10.6101 10.5298 10.6706 10.8554 10.6949 11.2206C10.7418 11.9231 10.6632 12.908 9.97505 13.5962C9.77979 13.7914 9.46321 13.7914 9.26795 13.5962L6.43952 10.7677L3.25754 13.9497C3.06228 14.145 2.03859 14.8521 1.84333 14.6568C1.64806 14.4616 2.35517 13.4379 2.55043 13.2426L5.73241 10.0606L2.90399 7.23221C2.70872 7.03695 2.70872 6.72036 2.90399 6.5251C3.59216 5.83693 4.57702 5.7584 5.27954 5.80524C5.64472 5.82958 5.9704 5.8901 6.20392 5.94399C6.23497 5.95116 6.2645 5.95823 6.29239 5.96512L9.42593 2.83159C9.40468 2.70635 9.38667 2.54824 9.38667 2.37085C9.38667 1.94022 9.49466 1.34864 9.97505 0.868248C10.0688 0.77448 10.196 0.721802 10.3286 0.721802Z" fill="#FF7039"/>
</svg>
