<svg width="16" height="17" viewBox="0 0 16 17" fill="none" xmlns="http://www.w3.org/2000/svg">
<path d="M9.82861 1.2218C9.96122 1.2218 10.0884 1.27448 10.1822 1.36825L15.1319 6.318C15.3272 6.51326 15.3272 6.82984 15.1319 7.0251C14.6515 7.5055 14.0599 7.61349 13.6293 7.61349C13.4519 7.61349 13.2938 7.59548 13.1686 7.57423L10.035 10.7078C10.0419 10.7357 10.049 10.7652 10.0562 10.7962C10.1101 11.0298 10.1706 11.3554 10.1949 11.7206C10.2418 12.4231 10.1632 13.408 9.47505 14.0962C9.27979 14.2914 8.96321 14.2914 8.76795 14.0962L5.93952 11.2677L2.75754 14.4497C2.56228 14.645 1.53859 15.3521 1.34333 15.1568C1.14806 14.9616 1.85517 13.9379 2.05043 13.7426L5.23241 10.5606L2.40399 7.73221C2.20872 7.53695 2.20872 7.22036 2.40399 7.0251C3.09216 6.33693 4.07702 6.2584 4.77954 6.30524C5.14472 6.32959 5.4704 6.3901 5.70392 6.44399C5.73497 6.45116 5.7645 6.45823 5.79239 6.46512L8.92593 3.33159C8.90468 3.20635 8.88667 3.04824 8.88667 2.87085C8.88667 2.44022 8.99466 1.84864 9.47505 1.36825C9.56882 1.27448 9.696 1.2218 9.82861 1.2218Z" fill="#FF7039"/>
</svg>
