<svg width="20" height="20" viewBox="0 0 20 20" fill="none" xmlns="http://www.w3.org/2000/svg">
<path d="M15.2132 11.9124C18.096 8.67273 19.3107 6.05763 19.764 4.1401C20.0262 3.03111 20.0314 2.1648 19.9627 1.55906C19.9285 1.25687 19.8761 1.02139 19.8292 0.854735C19.8058 0.77145 19.7838 0.705454 19.7662 0.656996C19.7552 0.626781 19.7436 0.596654 19.7307 0.567192L19.7301 0.565806C19.6396 0.361097 19.5218 0.273142 19.291 0.19804C19.2422 0.182155 19.1755 0.162302 19.0913 0.141344C18.9227 0.099411 18.6843 0.0531384 18.3789 0.0253319C17.7669 -0.0303855 16.8923 -0.0113782 15.7791 0.259807C13.8587 0.727651 11.2559 1.93873 8.07723 4.76475L5.07706 5.06232L5.06948 5.06312C4.34911 5.14328 3.67742 5.4666 3.16491 5.97989L0.186992 8.96234C-0.00730999 9.15693 -0.0554695 9.45421 0.0674178 9.70036C0.190305 9.94651 0.456666 10.0863 0.728688 10.0474L3.09892 9.70826C3.44878 9.6582 3.83924 9.72547 4.29235 9.87344C4.5828 9.96829 4.83908 10.073 5.11065 10.184C5.1931 10.2177 5.27776 10.2523 5.36443 10.287C5.6104 11.3079 6.19101 12.2629 6.95819 13.0312C7.72521 13.7994 8.67856 14.3808 9.69761 14.6273C9.73226 14.7139 9.76645 14.7977 9.80007 14.8801C9.91127 15.1527 10.0162 15.41 10.1111 15.7011C10.2589 16.1549 10.3261 16.5459 10.2761 16.8964L9.93752 19.2702C9.89865 19.5426 10.0382 19.8094 10.284 19.9325C10.5298 20.0556 10.8266 20.0073 11.0209 19.8127L13.9988 16.8303C14.5113 16.317 14.8342 15.6443 14.9142 14.9228L15.2132 11.9124ZM15.3503 7.28934C14.3531 8.28809 12.9384 8.4905 12.1904 7.74144C11.4425 6.99237 11.6446 5.57549 12.6419 4.57674C13.6391 3.57799 15.0538 3.37558 15.8017 4.12464C16.5497 4.8737 16.3476 6.29059 15.3503 7.28934Z" fill="#0FD186"/>
<path d="M6.50677 13.4833C7.18348 14.1611 7.95299 14.7458 8.7611 15.1735C7.36313 16.4318 2.60053 17.7089 2.44407 17.5522C2.28616 17.3941 3.36515 12.3163 4.74254 11.0765C5.17512 11.9402 5.78863 12.7641 6.50677 13.4833Z" fill="#0FD186"/>
</svg>
