<svg width="16" height="19" viewBox="0 0 16 19" fill="none" xmlns="http://www.w3.org/2000/svg">
<path d="M14.697 12.8324C14.6322 12.7543 14.5685 12.6762 14.506 12.6008C13.6467 11.5613 13.1267 10.934 13.1267 7.99141C13.1267 6.46797 12.7623 5.21797 12.0439 4.28047C11.5142 3.58789 10.7982 3.0625 9.85447 2.67422C9.84233 2.66746 9.83148 2.6586 9.82244 2.64805C9.48299 1.51133 8.55408 0.75 7.50642 0.75C6.45877 0.75 5.53025 1.51133 5.1908 2.64687C5.18174 2.65704 5.17104 2.66562 5.15916 2.67227C2.95681 3.57891 1.8865 5.31836 1.8865 7.99023C1.8865 10.934 1.36736 11.5613 0.507204 12.5996C0.444705 12.675 0.381033 12.7516 0.316189 12.8313C0.148689 13.0333 0.0425644 13.279 0.0103739 13.5394C-0.0218166 13.7999 0.0212747 14.0641 0.134548 14.3008C0.375564 14.8086 0.889236 15.1238 1.47556 15.1238H13.5416C14.1252 15.1238 14.6353 14.809 14.8771 14.3035C14.9909 14.0668 15.0344 13.8023 15.0025 13.5416C14.9706 13.2809 14.8646 13.0348 14.697 12.8324ZM7.50642 18.25C8.07089 18.2495 8.62471 18.0963 9.10914 17.8066C9.59358 17.5168 9.99056 17.1014 10.258 16.6043C10.2706 16.5805 10.2768 16.5538 10.276 16.5269C10.2753 16.4999 10.2676 16.4736 10.2537 16.4506C10.2397 16.4275 10.2201 16.4084 10.1966 16.3952C10.1732 16.3819 10.1467 16.375 10.1197 16.375H4.89392C4.86694 16.3749 4.84039 16.3818 4.81687 16.395C4.79334 16.4082 4.77364 16.4273 4.75967 16.4504C4.74571 16.4735 4.73796 16.4998 4.73719 16.5268C4.73641 16.5537 4.74264 16.5804 4.75525 16.6043C5.02265 17.1013 5.41957 17.5167 5.90393 17.8065C6.38828 18.0962 6.94202 18.2495 7.50642 18.25Z" fill="white"/>
</svg>
