<svg width="180" height="180" viewBox="0 0 180 180" fill="none" xmlns="http://www.w3.org/2000/svg">
<g filter="url(#filter0_b_1877_2471)">
<path d="M91.7308 170.357C91.7308 169.286 91.1538 168.75 90 168.75C85.7452 168.75 82.0853 167.327 79.0204 164.481C75.9555 161.635 74.4231 158.237 74.4231 154.286C74.4231 153.214 73.8461 152.679 72.6923 152.679C71.5385 152.679 70.9615 153.214 70.9615 154.286C70.9615 159.174 72.8185 163.343 76.5324 166.791C80.2464 170.24 84.7356 171.964 90 171.964C91.1538 171.964 91.7308 171.429 91.7308 170.357ZM19.6875 141.429H160.312C141.13 121.339 131.538 93.4822 131.538 57.8571C131.538 54.442 130.673 50.9263 128.942 47.3103C127.212 43.6942 124.724 40.2455 121.478 36.9643C118.233 33.683 113.852 30.9877 108.335 28.8783C102.818 26.769 96.7067 25.7143 90 25.7143C83.2933 25.7143 77.1815 26.769 71.6647 28.8783C66.1478 30.9877 61.7668 33.683 58.5216 36.9643C55.2764 40.2455 52.7885 43.6942 51.0577 47.3103C49.3269 50.9263 48.4615 54.442 48.4615 57.8571C47.2716 93.15 38.8702 121.339 19.6875 141.429ZM180 141.429C180 144.911 178.63 147.924 175.889 150.469C173.149 153.013 169.904 154.286 166.154 154.286H117.692C117.692 161.384 114.988 167.444 109.579 172.467C104.171 177.489 97.6442 180 90 180C82.3558 180 75.8293 177.489 70.4207 172.467C65.012 167.444 62.3077 161.384 62.3077 154.286H13.8462C10.0962 154.286 6.85096 153.013 4.11058 150.469C1.37019 147.924 0 144.911 0 141.429C3.60577 138.616 6.88702 135.67 9.84375 132.589C12.8005 129.509 15.8654 125.508 19.0385 120.586C22.2115 115.664 24.8978 110.357 27.0974 104.665C29.2969 98.9732 31.0998 92.0759 32.506 83.9732C33.9123 75.8706 34.6154 67.1652 34.6154 57.8571C34.6154 47.6786 38.8341 38.2199 47.2716 29.481C55.7091 20.7422 66.7788 15.4353 80.4808 13.5603C79.9038 12.2879 79.6154 10.9821 79.6154 9.64286C79.6154 6.96429 80.625 4.6875 82.6442 2.8125C84.6635 0.9375 87.1154 0 90 0C92.8846 0 95.3365 0.9375 97.3558 2.8125C99.375 4.6875 100.385 6.96429 100.385 9.64286C100.385 10.9821 100.096 12.2879 99.5192 13.5603C113.221 15.4353 124.291 20.7422 132.728 29.481C141.166 38.2199 145.385 47.6786 145.385 57.8571C145.385 67.1652 146.088 75.8706 147.494 83.9732C148.9 92.0759 150.703 98.9732 152.903 104.665C155.102 110.357 157.788 115.664 160.962 120.586C164.135 125.508 167.2 129.509 170.156 132.589C173.113 135.67 176.394 138.616 180 141.429Z" fill="#032A1B"/>
</g>
<defs>
<filter id="filter0_b_1877_2471" x="-4" y="-4" width="188" height="188" filterUnits="userSpaceOnUse" color-interpolation-filters="sRGB">
<feFlood flood-opacity="0" result="BackgroundImageFix"/>
<feGaussianBlur in="BackgroundImageFix" stdDeviation="2"/>
<feComposite in2="SourceAlpha" operator="in" result="effect1_backgroundBlur_1877_2471"/>
<feBlend mode="normal" in="SourceGraphic" in2="effect1_backgroundBlur_1877_2471" result="shape"/>
</filter>
</defs>
</svg>
