<svg width="18" height="18" viewBox="0 0 18 18" fill="none" xmlns="http://www.w3.org/2000/svg">
<path fill-rule="evenodd" clip-rule="evenodd" d="M7.8 0.525C8.14619 0.265356 8.56726 0.125 9 0.125C9.43274 0.125 9.85381 0.265356 10.2 0.525L17.2 5.775C17.4484 5.96129 17.65 6.20286 17.7889 6.48057C17.9277 6.75828 18 7.06451 18 7.375V15.875C18 16.4054 17.7893 16.9141 17.4142 17.2892C17.0391 17.6643 16.5304 17.875 16 17.875H2C1.46957 17.875 0.960859 17.6643 0.585786 17.2892C0.210714 16.9141 0 16.4054 0 15.875V7.375C0 7.06451 0.0722902 6.75828 0.211146 6.48057C0.350001 6.20286 0.551608 5.96129 0.8 5.775L7.8 0.525ZM10 6.875C10 6.60978 9.89464 6.35543 9.70711 6.16789C9.51957 5.98036 9.26522 5.875 9 5.875C8.73478 5.875 8.48043 5.98036 8.29289 6.16789C8.10536 6.35543 8 6.60978 8 6.875V12.875C8 13.1402 8.10536 13.3946 8.29289 13.5821C8.48043 13.7696 8.73478 13.875 9 13.875C9.26522 13.875 9.51957 13.7696 9.70711 13.5821C9.89464 13.3946 10 13.1402 10 12.875V6.875ZM6 9.875C6 9.60978 5.89464 9.35543 5.70711 9.16789C5.51957 8.98036 5.26522 8.875 5 8.875C4.73478 8.875 4.48043 8.98036 4.29289 9.16789C4.10536 9.35543 4 9.60978 4 9.875V12.875C4 13.1402 4.10536 13.3946 4.29289 13.5821C4.48043 13.7696 4.73478 13.875 5 13.875C5.26522 13.875 5.51957 13.7696 5.70711 13.5821C5.89464 13.3946 6 13.1402 6 12.875V9.875ZM14 11.875C14 11.6098 13.8946 11.3554 13.7071 11.1679C13.5196 10.9804 13.2652 10.875 13 10.875C12.7348 10.875 12.4804 10.9804 12.2929 11.1679C12.1054 11.3554 12 11.6098 12 11.875V12.875C12 13.1402 12.1054 13.3946 12.2929 13.5821C12.4804 13.7696 12.7348 13.875 13 13.875C13.2652 13.875 13.5196 13.7696 13.7071 13.5821C13.8946 13.3946 14 13.1402 14 12.875V11.875Z" fill="#00355D"/>
<path fill-rule="evenodd" clip-rule="evenodd" d="M7.8 0.525C8.14619 0.265356 8.56726 0.125 9 0.125C9.43274 0.125 9.85381 0.265356 10.2 0.525L17.2 5.775C17.4484 5.96129 17.65 6.20286 17.7889 6.48057C17.9277 6.75828 18 7.06451 18 7.375V15.875C18 16.4054 17.7893 16.9141 17.4142 17.2892C17.0391 17.6643 16.5304 17.875 16 17.875H2C1.46957 17.875 0.960859 17.6643 0.585786 17.2892C0.210714 16.9141 0 16.4054 0 15.875V7.375C0 7.06451 0.0722902 6.75828 0.211146 6.48057C0.350001 6.20286 0.551608 5.96129 0.8 5.775L7.8 0.525ZM10 6.875C10 6.60978 9.89464 6.35543 9.70711 6.16789C9.51957 5.98036 9.26522 5.875 9 5.875C8.73478 5.875 8.48043 5.98036 8.29289 6.16789C8.10536 6.35543 8 6.60978 8 6.875V12.875C8 13.1402 8.10536 13.3946 8.29289 13.5821C8.48043 13.7696 8.73478 13.875 9 13.875C9.26522 13.875 9.51957 13.7696 9.70711 13.5821C9.89464 13.3946 10 13.1402 10 12.875V6.875ZM6 9.875C6 9.60978 5.89464 9.35543 5.70711 9.16789C5.51957 8.98036 5.26522 8.875 5 8.875C4.73478 8.875 4.48043 8.98036 4.29289 9.16789C4.10536 9.35543 4 9.60978 4 9.875V12.875C4 13.1402 4.10536 13.3946 4.29289 13.5821C4.48043 13.7696 4.73478 13.875 5 13.875C5.26522 13.875 5.51957 13.7696 5.70711 13.5821C5.89464 13.3946 6 13.1402 6 12.875V9.875ZM14 11.875C14 11.6098 13.8946 11.3554 13.7071 11.1679C13.5196 10.9804 13.2652 10.875 13 10.875C12.7348 10.875 12.4804 10.9804 12.2929 11.1679C12.1054 11.3554 12 11.6098 12 11.875V12.875C12 13.1402 12.1054 13.3946 12.2929 13.5821C12.4804 13.7696 12.7348 13.875 13 13.875C13.2652 13.875 13.5196 13.7696 13.7071 13.5821C13.8946 13.3946 14 13.1402 14 12.875V11.875Z" fill="black" fill-opacity="0.2"/>
<path fill-rule="evenodd" clip-rule="evenodd" d="M7.8 0.525C8.14619 0.265356 8.56726 0.125 9 0.125C9.43274 0.125 9.85381 0.265356 10.2 0.525L17.2 5.775C17.4484 5.96129 17.65 6.20286 17.7889 6.48057C17.9277 6.75828 18 7.06451 18 7.375V15.875C18 16.4054 17.7893 16.9141 17.4142 17.2892C17.0391 17.6643 16.5304 17.875 16 17.875H2C1.46957 17.875 0.960859 17.6643 0.585786 17.2892C0.210714 16.9141 0 16.4054 0 15.875V7.375C0 7.06451 0.0722902 6.75828 0.211146 6.48057C0.350001 6.20286 0.551608 5.96129 0.8 5.775L7.8 0.525ZM10 6.875C10 6.60978 9.89464 6.35543 9.70711 6.16789C9.51957 5.98036 9.26522 5.875 9 5.875C8.73478 5.875 8.48043 5.98036 8.29289 6.16789C8.10536 6.35543 8 6.60978 8 6.875V12.875C8 13.1402 8.10536 13.3946 8.29289 13.5821C8.48043 13.7696 8.73478 13.875 9 13.875C9.26522 13.875 9.51957 13.7696 9.70711 13.5821C9.89464 13.3946 10 13.1402 10 12.875V6.875ZM6 9.875C6 9.60978 5.89464 9.35543 5.70711 9.16789C5.51957 8.98036 5.26522 8.875 5 8.875C4.73478 8.875 4.48043 8.98036 4.29289 9.16789C4.10536 9.35543 4 9.60978 4 9.875V12.875C4 13.1402 4.10536 13.3946 4.29289 13.5821C4.48043 13.7696 4.73478 13.875 5 13.875C5.26522 13.875 5.51957 13.7696 5.70711 13.5821C5.89464 13.3946 6 13.1402 6 12.875V9.875ZM14 11.875C14 11.6098 13.8946 11.3554 13.7071 11.1679C13.5196 10.9804 13.2652 10.875 13 10.875C12.7348 10.875 12.4804 10.9804 12.2929 11.1679C12.1054 11.3554 12 11.6098 12 11.875V12.875C12 13.1402 12.1054 13.3946 12.2929 13.5821C12.4804 13.7696 12.7348 13.875 13 13.875C13.2652 13.875 13.5196 13.7696 13.7071 13.5821C13.8946 13.3946 14 13.1402 14 12.875V11.875Z" fill="black" fill-opacity="0.2"/>
</svg>
